M48
; DRILL file {KiCad 7.0.10} date Sun Jan 14 19:19:29 2024
; FORMAT={-:-/ absolute / inch / decimal}
; #@! TF.CreationDate,2024-01-14T19:19:29+05:30
; #@! TF.GenerationSoftware,Kicad,Pcbnew,7.0.10
; #@! TF.FileFunction,Plated,1,4,PTH
FMAT,2
INCH
; #@! TA.AperFunction,Plated,PTH,ViaDrill
T1C0.0157
; #@! TA.AperFunction,Plated,PTH,ViaDrill
T2C0.0197
; #@! TA.AperFunction,Plated,PTH,ComponentDrill
T3C0.0236
; #@! TA.AperFunction,Plated,PTH,ComponentDrill
T4C0.0394
; #@! TA.AperFunction,Plated,PTH,ComponentDrill
T5C0.0866
%
G90
G05
T1
X3.4547Y-7.0571
X3.4547Y-7.2736
X3.4744Y-7.0177
X3.4744Y-7.313
X3.5039Y-7.0571
X3.5039Y-7.2736
X3.5335Y-7.0177
X3.5335Y-7.313
X3.5531Y-7.0571
X3.5531Y-7.2736
X3.65Y-6.3867
X3.6914Y-7.3008
X3.7969Y-6.8437
X3.8789Y-7.5117
X4.4824Y-7.6934
X4.58Y-6.55
X4.58Y-6.97
X4.62Y-8.51
X4.7812Y-7.3242
X4.97Y-4.67
X5.27Y-7.74
X5.34Y-6.55
X5.34Y-6.94
X5.5512Y-5.187
X5.5512Y-5.2461
X5.5906Y-5.1673
X5.5906Y-5.2165
X5.5906Y-5.2657
X5.72Y-4.67
X5.8071Y-5.1673
X5.8071Y-5.2165
X5.8071Y-5.2657
X5.8465Y-5.187
X5.8465Y-5.2461
X5.8711Y-8.55
X5.97Y-7.73
X6.08Y-6.55
X6.08Y-6.91
X6.47Y-4.67
X6.668Y-4.2929
X6.75Y-7.72
X6.84Y-6.55
X6.84Y-6.91
X7.15Y-5.41
X7.22Y-4.67
X7.47Y-7.72
X7.58Y-6.55
X7.58Y-6.94
X7.92Y-5.41
X8.25Y-7.72
X8.33Y-6.55
X8.34Y-4.67
X8.3957Y-8.5925
X8.3957Y-8.6516
X8.435Y-8.5728
X8.435Y-8.622
X8.435Y-8.6713
X8.52Y-6.96
X8.65Y-5.41
X8.6516Y-8.5728
X8.6516Y-8.622
X8.6516Y-8.6713
X8.69Y-8.44
X8.6909Y-8.5925
X8.6909Y-8.6516
X8.97Y-7.73
X9.09Y-4.67
X9.09Y-6.55
X9.09Y-6.94
X9.39Y-5.41
X9.53Y-8.4
X9.74Y-7.73
X9.83Y-6.55
X9.83Y-6.94
X9.84Y-4.67
X10.15Y-5.41
X10.23Y-8.39
X10.45Y-7.73
X10.58Y-6.55
X10.58Y-6.94
X10.59Y-4.67
X10.87Y-5.41
X10.98Y-8.39
X11.1328Y-8.8594
X11.18Y-7.73
X11.33Y-6.55
X11.63Y-5.41
X11.707Y-8.1797
X11.72Y-4.67
X11.77Y-8.39
X11.93Y-7.73
X12.08Y-6.55
X12.37Y-5.41
X12.3917Y-6.1909
X12.42Y-5.8
X12.46Y-4.67
X12.53Y-8.39
X12.687Y-8.52
X12.78Y-7.73
X12.83Y-6.55
X12.8883Y-7.8488
X12.8883Y-8.0653
X12.908Y-7.8094
X12.908Y-8.1047
X12.9375Y-7.8488
X12.9375Y-8.0653
X12.967Y-7.8094
X12.967Y-8.1047
X12.9867Y-7.8488
X12.9867Y-8.0653
X13.13Y-5.41
X13.1496Y-6.2205
X13.18Y-5.86
X13.22Y-4.67
X13.2382Y-5.8268
X13.2382Y-5.8858
X13.2776Y-5.8071
X13.2776Y-5.8563
X13.2776Y-5.9055
X13.32Y-7.88
X13.4531Y-7.6523
X13.4941Y-5.8071
X13.4941Y-5.8563
X13.4941Y-5.9055
X13.5234Y-6.6626
X13.5335Y-5.8268
X13.5335Y-5.8858
X13.91Y-6.76
X13.9453Y-4.3215
X13.96Y-4.67
X14.6985Y-6.5915
X14.74Y-5.41
X14.8008Y-4.8398
X14.8008Y-5.0815
X14.8476Y-4.7876
X14.8476Y-5.11
X14.85Y-4.65
X14.87Y-5.62
X15.01Y-8.39
X15.082Y-5.17
X15.1565Y-8.4646
X15.5709Y-5.4134
X15.5807Y-7.8839
X15.6562Y-4.6641
X15.7333Y-5.5463
X15.7382Y-5.2
X15.7874Y-7.1775
X15.7874Y-7.2366
X15.8268Y-7.1578
X15.8268Y-7.207
X15.8268Y-7.2562
X16.0433Y-7.1578
X16.0433Y-7.207
X16.0433Y-7.2562
X16.0827Y-7.1775
X16.0827Y-7.2366
X16.25Y-6.2502
X16.3091Y-5.4724
X16.3681Y-6.6094
X16.3711Y-5.17
X16.39Y-4.67
X16.4173Y-5.6299
X16.4862Y-5.23
X16.5351Y-6.25
X16.8281Y-8.4547
X16.8996Y-6.2106
X17.1752Y-4.626
X17.1752Y-4.685
X17.1752Y-4.7441
X17.2244Y-4.6457
X17.2244Y-4.7146
X17.2244Y-8.6319
X17.2441Y-8.3661
X17.2638Y-4.685
X17.2638Y-4.7441
X17.2736Y-4.5079
X17.2736Y-6.5636
X17.2736Y-7.9626
X17.2933Y-4.4587
X17.3228Y-4.5079
X17.3425Y-4.4587
X17.3524Y-5.2585
X17.3524Y-5.5118
X17.372Y-4.5079
X17.4016Y-4.4685
X17.5886Y-4.5079
X17.5984Y-5.4429
X17.7165Y-4.4685
X17.7264Y-4.5374
X17.7756Y-4.498
X17.7756Y-4.56
X17.815Y-8.44
X17.8248Y-4.4488
X17.8248Y-4.5374
X17.8476Y-7.0078
X17.874Y-4.498
X17.874Y-4.56
X17.9035Y-4.2913
X17.9134Y-4.2421
X17.9331Y-4.5374
X17.9331Y-5.32
X17.9331Y-5.5364
X17.9429Y-4.1929
X17.9429Y-4.4685
X17.9724Y-4.2421
X17.9724Y-8.3071
X18.002Y-4.1929
X18.002Y-4.498
X18.0118Y-5.2
X18.0118Y-6.4665
X18.0315Y-4.2421
X18.061Y-4.1929
X18.061Y-4.2913
X18.061Y-5.0591
X18.0703Y-7.126
X18.0761Y-5.29
X18.0906Y-5.6133
X18.0906Y-8.0413
X18.1988Y-5.35
X18.2234Y-4.8868
X18.5433Y-5.4134
X18.5433Y-5.5413
X18.58Y-8.9126
X18.5976Y-7.7109
X18.6319Y-5.1083
X18.6328Y-4.6523
X18.6417Y-5.1575
X18.6562Y-7.418
X18.7008Y-5.3248
X18.7031Y-5.8711
X18.7303Y-8.3071
X18.75Y-5.374
X18.75Y-7.3359
X18.7864Y-5.2362
X18.8337Y-4.8868
X18.8386Y-8.0413
X18.8484Y-7.1358
X18.8484Y-8.6319
X18.9173Y-4.9311
X18.937Y-4.7047
X18.9961Y-5.0098
X19.0256Y-4.8425
X19.0256Y-4.9705
X19.13Y-4.68
X19.35Y-7.59
X19.35Y-7.72
X19.37Y-8.44
X19.439Y-5.4429
X19.47Y-8.44
X19.5Y-6.84
X19.56Y-5.56
X19.7539Y-7.372
X19.7539Y-7.5886
X19.7736Y-7.3327
X19.7736Y-7.628
X19.8031Y-7.372
X19.8031Y-7.5886
X19.8228Y-4.3504
X19.8228Y-4.4685
X19.8327Y-7.3327
X19.8327Y-7.628
X19.8524Y-7.372
X19.8524Y-7.5886
X19.875Y-8.1626
X20.04Y-5.99
X20.1094Y-7.125
X20.2031Y-6.9961
T2
X3.4805Y-8.9648
X3.4805Y-9.0586
X3.5391Y-4.793
X3.5391Y-4.9687
X3.5391Y-5.9297
X3.5391Y-6.1055
X3.5859Y-8.2969
X3.6914Y-8.2243
X3.7266Y-6.6797
X3.7266Y-6.8437
X3.7617Y-7.4766
X3.8203Y-7.6055
X3.8555Y-4.9687
X3.9492Y-8.3437
X4.043Y-6.8437
X4.2305Y-5.9648
X4.2891Y-6.1055
X4.3242Y-8.9648
X4.36Y-9.1
X4.4766Y-8.3437
X4.5352Y-8.2243
X4.6641Y-6.8437
X4.7227Y-6.7243
X4.793Y-7.4648
X4.793Y-8.3437
X4.8516Y-7.6055
X4.9687Y-4.8398
X4.9805Y-5.9648
X4.9805Y-6.8437
X5.0391Y-4.9687
X5.0391Y-6.1055
X5.2266Y-8.3437
X5.2617Y-8.9648
X5.2617Y-9.0586
X5.2852Y-8.2243
X5.3555Y-4.9687
X5.4141Y-6.8437
X5.4727Y-6.7243
X5.543Y-7.4648
X5.543Y-8.3437
X5.6016Y-7.6055
X5.7187Y-4.8398
X5.7305Y-5.9648
X5.7305Y-6.8437
X5.7891Y-4.9687
X5.7891Y-6.1055
X5.9766Y-8.3437
X6.0352Y-8.2243
X6.1055Y-4.9687
X6.1641Y-6.8437
X6.1992Y-8.9648
X6.1992Y-9.0586
X6.2227Y-6.7243
X6.293Y-7.4648
X6.293Y-8.3437
X6.3516Y-7.6055
X6.4687Y-4.8398
X6.4805Y-5.9648
X6.4805Y-6.8437
X6.5391Y-4.9687
X6.5391Y-6.1055
X6.7266Y-8.3437
X6.7852Y-8.2243
X6.8555Y-4.9687
X6.9141Y-6.8426
X6.9727Y-6.7232
X7.043Y-7.4648
X7.043Y-8.3437
X7.1016Y-7.6055
X7.2187Y-4.8398
X7.2305Y-5.9648
X7.2305Y-6.8426
X7.2891Y-4.9687
X7.2891Y-6.1055
X7.4766Y-8.3437
X7.5351Y-8.2243
X7.6055Y-4.9687
X7.6641Y-6.8426
X7.7226Y-6.7232
X7.793Y-7.4648
X7.793Y-8.3437
X7.8516Y-7.6055
X7.9804Y-5.9648
X7.9805Y-6.8426
X8.039Y-6.1055
X8.2266Y-8.3437
X8.2851Y-8.2243
X8.3437Y-4.8398
X8.4141Y-4.9687
X8.4141Y-6.8426
X8.4726Y-6.7232
X8.543Y-7.4648
X8.543Y-8.3437
X8.6016Y-7.6055
X8.7305Y-4.9687
X8.7305Y-5.9648
X8.7305Y-6.8426
X8.7891Y-6.1055
X8.918Y-8.9648
X8.918Y-9.0586
X8.9766Y-8.3437
X9.0351Y-8.2243
X9.0937Y-4.8398
X9.1641Y-4.9687
X9.1641Y-6.8426
X9.2226Y-6.7232
X9.293Y-7.4648
X9.293Y-8.3437
X9.3516Y-7.6055
X9.4805Y-4.9687
X9.4805Y-5.9648
X9.4805Y-6.8426
X9.5391Y-6.1055
X9.7266Y-8.3437
X9.7851Y-8.2243
X9.8437Y-4.8398
X9.9141Y-4.9687
X9.9141Y-6.8426
X9.9726Y-6.7232
X10.043Y-7.4648
X10.043Y-8.3437
X10.1016Y-7.6055
X10.2305Y-4.9687
X10.2305Y-5.9648
X10.2305Y-6.8426
X10.2891Y-6.1055
X10.4766Y-8.3437
X10.5351Y-8.2243
X10.5937Y-4.8398
X10.6641Y-4.9687
X10.6641Y-6.8426
X10.7226Y-6.7232
X10.793Y-7.4648
X10.793Y-8.3437
X10.8516Y-7.6055
X10.9805Y-4.9687
X10.9805Y-5.9648
X10.9805Y-6.8426
X11.0391Y-6.1055
X11.2266Y-8.3437
X11.2851Y-8.2243
X11.4141Y-6.8426
X11.4726Y-6.7232
X11.543Y-7.4648
X11.543Y-8.3437
X11.543Y-8.9648
X11.543Y-9.0586
X11.6016Y-7.6055
X11.7187Y-4.8398
X11.7305Y-5.9648
X11.7305Y-6.8426
X11.7891Y-4.9687
X11.7891Y-6.1055
X11.9766Y-8.3437
X12.0351Y-8.2243
X12.1055Y-4.9687
X12.1641Y-6.8437
X12.2226Y-6.7243
X12.293Y-7.4648
X12.293Y-8.3437
X12.3516Y-7.6055
X12.3867Y-8.9648
X12.3867Y-9.0586
X12.4687Y-4.8398
X12.4805Y-5.9648
X12.4805Y-6.8437
X12.5391Y-4.9687
X12.5391Y-6.1055
X12.8555Y-4.9687
X12.9141Y-6.8437
X12.9726Y-6.7243
X13.043Y-7.4648
X13.1016Y-7.6055
X13.2187Y-4.8398
X13.2305Y-6.8437
X13.2305Y-8.9648
X13.2305Y-9.0586
X13.2891Y-4.9687
X13.3828Y-8.3437
X13.4414Y-8.2243
X13.6055Y-4.9687
X13.6055Y-5.9648
X13.6641Y-6.1055
X13.6992Y-8.3437
X13.8867Y-7.1016
X13.8867Y-7.1719
X13.9687Y-4.8398
X13.9805Y-8.9648
X13.9805Y-9.0586
X14.0391Y-4.9687
X14.3555Y-4.9687
X14.9062Y-4.8398
X14.918Y-5.9648
X14.918Y-8.9648
X14.918Y-9.0586
X14.9765Y-4.9687
X14.9765Y-6.1055
X14.9765Y-6.8437
X15.0351Y-6.7243
X15.293Y-4.9687
X15.293Y-6.8437
X15.6562Y-4.8398
X15.668Y-5.9648
X15.668Y-8.9648
X15.668Y-9.0586
X15.7265Y-4.9687
X15.7265Y-6.1055
X15.7265Y-6.8437
X15.7265Y-8.3437
X15.7851Y-6.7243
X15.7851Y-8.2243
X16.043Y-4.9687
X16.043Y-6.8437
X16.043Y-8.3437
X16.4062Y-4.8398
X16.418Y-5.9648
X16.418Y-8.9648
X16.418Y-9.0586
X16.4765Y-4.9687
X16.4765Y-6.1055
X16.4765Y-6.8437
X16.5351Y-6.7243
X16.7812Y-6.8555
X16.793Y-4.9687
X17.3555Y-5.9648
X17.3555Y-7.4648
X17.414Y-6.1055
X17.414Y-6.8437
X17.414Y-7.6055
X17.414Y-8.3437
X17.4726Y-6.7243
X17.4726Y-8.2243
X17.7305Y-6.8437
X17.7305Y-8.3437
X17.7305Y-8.9648
X17.7305Y-9.0586
X18.1054Y-5.9649
X18.1055Y-7.4648
X18.164Y-6.1055
X18.164Y-6.8437
X18.164Y-7.6055
X18.164Y-8.3437
X18.2226Y-6.7243
X18.2226Y-8.2243
X18.4154Y-4.7146
X18.4154Y-5.128
X18.4805Y-6.8437
X18.4805Y-8.3437
X18.5138Y-5.1673
X18.5433Y-4.6654
X18.6417Y-4.4587
X18.6417Y-4.5374
X18.6713Y-5.2559
X18.8555Y-7.4648
X18.8555Y-8.9648
X18.8555Y-9.0586
X18.914Y-6.1055
X18.914Y-6.8437
X18.914Y-7.6055
X18.914Y-8.3437
X18.9173Y-4.4193
X18.9609Y-5.9743
X18.9726Y-6.7243
X18.9726Y-8.2243
X18.9862Y-5.3051
X19.0551Y-5.1575
X19.2305Y-6.8437
X19.2305Y-8.3437
X19.3346Y-4.8917
X19.3406Y-4.8031
X19.3504Y-4.6358
X19.3504Y-4.7146
X19.4488Y-4.9508
X19.6054Y-5.9649
X19.6523Y-7.0898
X19.6523Y-7.2539
X19.664Y-6.1055
X19.664Y-8.5547
X19.664Y-8.7187
X19.7736Y-4.7539
X19.9687Y-7.2539
X20.039Y-8.6719
T4
X19.4577Y-4.3494
X19.4577Y-4.4494
X19.5577Y-4.3494
X19.5577Y-4.4494
X19.6577Y-4.3494
X19.6577Y-4.4494
T5
X4.2188Y-9.0938
X4.3125Y-4.6875
X4.4062Y-6.8438
X8.0625Y-4.6875
X8.25Y-6.93
X9.6562Y-9.0938
X11.4375Y-4.6875
X14.7188Y-6.8438
X14.7188Y-9.0938
X17.9062Y-4.6875
X18.7Y-8.8125
X19.88Y-6.22
T3
G00X17.3986Y-4.2177
M15
G01X17.3986Y-4.2413
M16
G05
G00X17.3986Y-4.3724
M15
G01X17.3986Y-4.4157
M16
G05
G00X17.7388Y-4.2177
M15
G01X17.7388Y-4.2413
M16
G05
G00X17.7388Y-4.3724
M15
G01X17.7388Y-4.4157
M16
G05
M30
