M48
; DRILL file {KiCad 7.0.10} date Sun Jan 14 19:19:29 2024
; FORMAT={-:-/ absolute / inch / decimal}
; #@! TF.CreationDate,2024-01-14T19:19:29+05:30
; #@! TF.GenerationSoftware,Kicad,Pcbnew,7.0.10
; #@! TF.FileFunction,NonPlated,1,4,NPTH
FMAT,2
INCH
; #@! TA.AperFunction,NonPlated,NPTH,ComponentDrill
T1C0.0256
; #@! TA.AperFunction,NonPlated,NPTH,ComponentDrill
T2C0.0670
; #@! TA.AperFunction,NonPlated,NPTH,ComponentDrill
T3C0.1181
; #@! TA.AperFunction,NonPlated,NPTH,ComponentDrill
T4C0.1200
; #@! TA.AperFunction,NonPlated,NPTH,ComponentDrill
T5C0.1570
%
G90
G05
T1
X17.4549Y-4.3732
X17.6825Y-4.3732
T2
X3.55Y-4.6875
X3.55Y-5.8125
X3.55Y-8.8125
X3.6437Y-8.0625
X3.7375Y-6.5625
X3.8312Y-7.3125
X3.95Y-4.6875
X3.95Y-5.8125
X3.95Y-8.8125
X4.0438Y-8.0625
X4.1375Y-6.5625
X4.2313Y-7.3125
X4.3Y-5.8125
X4.3937Y-8.8125
X4.4875Y-8.0625
X4.675Y-6.5625
X4.7Y-5.8125
X4.7938Y-8.8125
X4.8625Y-7.3125
X4.8875Y-8.0625
X5.05Y-4.6875
X5.05Y-5.8125
X5.075Y-6.5625
X5.2375Y-8.0625
X5.2625Y-7.3125
X5.3312Y-8.8125
X5.425Y-6.5625
X5.45Y-4.6875
X5.45Y-5.8125
X5.6125Y-7.3125
X5.6375Y-8.0625
X5.7313Y-8.8125
X5.8Y-4.6875
X5.8Y-5.8125
X5.825Y-6.5625
X5.9875Y-8.0625
X6.0125Y-7.3125
X6.175Y-6.5625
X6.2Y-4.6875
X6.2Y-5.8125
X6.2687Y-8.8125
X6.3625Y-7.3125
X6.3875Y-8.0625
X6.55Y-4.6875
X6.55Y-5.8125
X6.575Y-6.5625
X6.6688Y-8.8125
X6.7375Y-8.0625
X6.7625Y-7.3125
X6.925Y-6.5625
X6.95Y-4.6875
X6.95Y-5.8125
X7.1125Y-7.3125
X7.1375Y-8.0625
X7.3Y-4.6875
X7.3Y-5.8125
X7.325Y-6.5625
X7.4875Y-8.0625
X7.5125Y-7.3125
X7.675Y-6.5625
X7.7Y-4.6875
X7.7Y-5.8125
X7.8625Y-7.3125
X7.8875Y-8.0625
X8.05Y-5.8125
X8.075Y-6.5625
X8.2375Y-8.0625
X8.2625Y-7.3125
X8.425Y-4.6875
X8.425Y-6.5625
X8.45Y-5.8125
X8.6125Y-7.3125
X8.6375Y-8.0625
X8.8Y-5.8125
X8.825Y-4.6875
X8.825Y-6.5625
X8.9875Y-8.0625
X8.9875Y-8.8125
X9.0125Y-7.3125
X9.175Y-4.6875
X9.175Y-6.5625
X9.2Y-5.8125
X9.3625Y-7.3125
X9.3875Y-8.0625
X9.3875Y-8.8125
X9.55Y-5.8125
X9.575Y-4.6875
X9.575Y-6.5625
X9.7375Y-8.0625
X9.7625Y-7.3125
X9.925Y-4.6875
X9.925Y-6.5625
X9.95Y-5.8125
X10.1125Y-7.3125
X10.1375Y-8.0625
X10.3Y-5.8125
X10.325Y-4.6875
X10.325Y-6.5625
X10.4875Y-8.0625
X10.5125Y-7.3125
X10.675Y-4.6875
X10.675Y-6.5625
X10.7Y-5.8125
X10.8625Y-7.3125
X10.8875Y-8.0625
X11.05Y-5.8125
X11.075Y-4.6875
X11.075Y-6.5625
X11.2375Y-8.0625
X11.2625Y-7.3125
X11.425Y-6.5625
X11.45Y-5.8125
X11.6125Y-7.3125
X11.6125Y-8.8125
X11.6375Y-8.0625
X11.8Y-4.6875
X11.8Y-5.8125
X11.825Y-6.5625
X11.9875Y-8.0625
X12.0125Y-7.3125
X12.0125Y-8.8125
X12.175Y-6.5625
X12.2Y-4.6875
X12.2Y-5.8125
X12.3625Y-7.3125
X12.3875Y-8.0625
X12.4562Y-8.8125
X12.55Y-4.6875
X12.55Y-5.8125
X12.575Y-6.5625
X12.7625Y-7.3125
X12.8562Y-8.8125
X12.925Y-6.5625
X12.95Y-4.6875
X12.95Y-5.8125
X13.1125Y-7.3125
X13.3Y-4.6875
X13.3Y-8.8125
X13.325Y-6.5625
X13.3937Y-8.0625
X13.5125Y-7.3125
X13.675Y-5.8125
X13.7Y-4.6875
X13.7Y-8.8125
X13.7937Y-8.0625
X13.9562Y-6.9375
X14.05Y-4.6875
X14.05Y-8.8125
X14.075Y-5.8125
X14.3562Y-6.9375
X14.45Y-4.6875
X14.45Y-8.8125
X14.9875Y-4.6875
X14.9875Y-5.8125
X14.9875Y-6.5625
X14.9875Y-8.8125
X15.3875Y-4.6875
X15.3875Y-5.8125
X15.3875Y-6.5625
X15.3875Y-8.8125
X15.7375Y-4.6875
X15.7375Y-5.8125
X15.7375Y-6.5625
X15.7375Y-8.0625
X15.7375Y-8.8125
X16.1375Y-4.6875
X16.1375Y-5.8125
X16.1375Y-6.5625
X16.1375Y-8.0625
X16.1375Y-8.8125
X16.4875Y-4.6875
X16.4875Y-5.8125
X16.4875Y-6.5625
X16.4875Y-8.8125
X16.8875Y-4.6875
X16.8875Y-5.8125
X16.8875Y-6.5625
X16.8875Y-8.8125
X17.425Y-5.8125
X17.425Y-6.5625
X17.425Y-7.3125
X17.425Y-8.0625
X17.8Y-8.8125
X17.825Y-5.8125
X17.825Y-6.5625
X17.825Y-7.3125
X17.825Y-8.0625
X18.175Y-5.8125
X18.175Y-6.5625
X18.175Y-7.3125
X18.175Y-8.0625
X18.2Y-8.8125
X18.575Y-5.8125
X18.575Y-6.5625
X18.575Y-7.3125
X18.575Y-8.0625
X18.925Y-5.8125
X18.925Y-6.5625
X18.925Y-7.3125
X18.925Y-8.0625
X18.925Y-8.8125
X19.325Y-5.8125
X19.325Y-6.5625
X19.325Y-7.3125
X19.325Y-8.0625
X19.325Y-8.8125
X19.675Y-5.8125
X19.675Y-6.9375
X19.675Y-8.4375
X20.075Y-5.8125
X20.075Y-6.9375
X20.075Y-8.4375
T3
X3.6Y-4.5875
X3.6Y-5.7125
X3.6Y-8.7125
X3.6938Y-7.9625
X3.7875Y-6.4625
X3.85Y-4.4875
X3.85Y-5.6125
X3.85Y-8.6125
X3.8813Y-7.2125
X3.9438Y-7.8625
X4.0375Y-6.3625
X4.1312Y-7.1125
X4.35Y-5.7125
X4.4437Y-8.7125
X4.5375Y-7.9625
X4.6Y-5.6125
X4.6937Y-8.6125
X4.725Y-6.4625
X4.7875Y-7.8625
X4.9125Y-7.2125
X4.975Y-6.3625
X5.1Y-4.5875
X5.1Y-5.7125
X5.1625Y-7.1125
X5.2875Y-7.9625
X5.35Y-4.4875
X5.35Y-5.6125
X5.3812Y-8.7125
X5.475Y-6.4625
X5.5375Y-7.8625
X5.6312Y-8.6125
X5.6625Y-7.2125
X5.725Y-6.3625
X5.85Y-4.5875
X5.85Y-5.7125
X5.9125Y-7.1125
X6.0375Y-7.9625
X6.1Y-4.4875
X6.1Y-5.6125
X6.225Y-6.4625
X6.2875Y-7.8625
X6.3187Y-8.7125
X6.4125Y-7.2125
X6.475Y-6.3625
X6.5687Y-8.6125
X6.6Y-4.5875
X6.6Y-5.7125
X6.6625Y-7.1125
X6.7875Y-7.9625
X6.85Y-4.4875
X6.85Y-5.6125
X6.975Y-6.4625
X7.0375Y-7.8625
X7.1625Y-7.2125
X7.225Y-6.3625
X7.35Y-4.5875
X7.35Y-5.7125
X7.4125Y-7.1125
X7.5375Y-7.9625
X7.6Y-4.4875
X7.6Y-5.6125
X7.725Y-6.4625
X7.7875Y-7.8625
X7.9125Y-7.2125
X7.975Y-6.3625
X8.1Y-5.7125
X8.1625Y-7.1125
X8.2875Y-7.9625
X8.35Y-5.6125
X8.475Y-4.5875
X8.475Y-6.4625
X8.5375Y-7.8625
X8.6625Y-7.2125
X8.725Y-4.4875
X8.725Y-6.3625
X8.85Y-5.7125
X8.9125Y-7.1125
X9.0375Y-7.9625
X9.0375Y-8.7125
X9.1Y-5.6125
X9.225Y-4.5875
X9.225Y-6.4625
X9.2875Y-7.8625
X9.2875Y-8.6125
X9.4125Y-7.2125
X9.475Y-4.4875
X9.475Y-6.3625
X9.6Y-5.7125
X9.6625Y-7.1125
X9.7875Y-7.9625
X9.85Y-5.6125
X9.975Y-4.5875
X9.975Y-6.4625
X10.0375Y-7.8625
X10.1625Y-7.2125
X10.225Y-4.4875
X10.225Y-6.3625
X10.35Y-5.7125
X10.4125Y-7.1125
X10.5375Y-7.9625
X10.6Y-5.6125
X10.725Y-4.5875
X10.725Y-6.4625
X10.7875Y-7.8625
X10.9125Y-7.2125
X10.975Y-4.4875
X10.975Y-6.3625
X11.1Y-5.7125
X11.1625Y-7.1125
X11.2875Y-7.9625
X11.35Y-5.6125
X11.475Y-6.4625
X11.5375Y-7.8625
X11.6625Y-7.2125
X11.6625Y-8.7125
X11.725Y-6.3625
X11.85Y-4.5875
X11.85Y-5.7125
X11.9125Y-7.1125
X11.9125Y-8.6125
X12.0375Y-7.9625
X12.1Y-4.4875
X12.1Y-5.6125
X12.225Y-6.4625
X12.2875Y-7.8625
X12.4125Y-7.2125
X12.475Y-6.3625
X12.5062Y-8.7125
X12.6Y-4.5875
X12.6Y-5.7125
X12.6625Y-7.1125
X12.7562Y-8.6125
X12.85Y-4.4875
X12.85Y-5.6125
X12.975Y-6.4625
X13.1625Y-7.2125
X13.225Y-6.3625
X13.35Y-4.5875
X13.35Y-8.7125
X13.4125Y-7.1125
X13.4437Y-7.9625
X13.6Y-4.4875
X13.6Y-8.6125
X13.6937Y-7.8625
X13.725Y-5.7125
X13.975Y-5.6125
X14.0062Y-6.8375
X14.1Y-4.5875
X14.1Y-8.7125
X14.2562Y-6.7375
X14.35Y-4.4875
X14.35Y-8.6125
X15.0375Y-4.5875
X15.0375Y-5.7125
X15.0375Y-6.4625
X15.0375Y-8.7125
X15.2875Y-4.4875
X15.2875Y-5.6125
X15.2875Y-6.3625
X15.2875Y-8.6125
X15.7875Y-4.5875
X15.7875Y-5.7125
X15.7875Y-6.4625
X15.7875Y-7.9625
X15.7875Y-8.7125
X16.0375Y-4.4875
X16.0375Y-5.6125
X16.0375Y-6.3625
X16.0375Y-7.8625
X16.0375Y-8.6125
X16.5375Y-4.5875
X16.5375Y-5.7125
X16.5375Y-6.4625
X16.5375Y-8.7125
X16.7875Y-4.4875
X16.7875Y-5.6125
X16.7875Y-6.3625
X16.7875Y-8.6125
X17.475Y-5.7125
X17.475Y-6.4625
X17.475Y-7.2125
X17.475Y-7.9625
X17.725Y-5.6125
X17.725Y-6.3625
X17.725Y-7.1125
X17.725Y-7.8625
X17.85Y-8.7125
X18.1Y-8.6125
X18.225Y-5.7125
X18.225Y-6.4625
X18.225Y-7.2125
X18.225Y-7.9625
X18.475Y-5.6125
X18.475Y-6.3625
X18.475Y-7.1125
X18.475Y-7.8625
X18.975Y-5.7125
X18.975Y-6.4625
X18.975Y-7.2125
X18.975Y-7.9625
X18.975Y-8.7125
X19.225Y-5.6125
X19.225Y-6.3625
X19.225Y-7.1125
X19.225Y-7.8625
X19.225Y-8.6125
X19.725Y-5.7125
X19.725Y-6.8375
X19.725Y-8.3375
X19.975Y-5.6125
X19.975Y-6.7375
X19.975Y-8.2375
T4
X7.3125Y-8.5375
X11.0625Y-8.5375
X13.1252Y-7.7875
X13.4065Y-5.5375
X13.8812Y-6.469
X13.8812Y-7.406
X14.0623Y-7.7875
X14.3435Y-5.5375
X17.5315Y-8.5375
X18.4685Y-8.5375
X19.6Y-6.469
X19.6Y-7.406
X19.6Y-7.969
X19.6Y-8.906
T5
X3.75Y-4.6875
X3.75Y-5.8125
X3.75Y-8.8125
X3.8438Y-8.0625
X3.9375Y-6.5625
X4.0312Y-7.3125
X4.5Y-5.8125
X4.5938Y-8.8125
X4.6875Y-8.0625
X4.875Y-6.5625
X5.0625Y-7.3125
X5.25Y-4.6875
X5.25Y-5.8125
X5.4375Y-8.0625
X5.5312Y-8.8125
X5.625Y-6.5625
X5.8125Y-7.3125
X6.0Y-4.6875
X6.0Y-5.8125
X6.1875Y-8.0625
X6.375Y-6.5625
X6.4688Y-8.8125
X6.5625Y-7.3125
X6.75Y-4.6875
X6.75Y-5.8125
X6.9375Y-8.0625
X7.125Y-6.5625
X7.3125Y-7.3125
X7.3125Y-9.1375
X7.5Y-4.6875
X7.5Y-5.8125
X7.6875Y-8.0625
X7.875Y-6.5625
X8.0625Y-7.3125
X8.25Y-5.8125
X8.4375Y-8.0625
X8.625Y-4.6875
X8.625Y-6.5625
X8.8125Y-7.3125
X9.0Y-5.8125
X9.1875Y-8.0625
X9.1875Y-8.8125
X9.375Y-4.6875
X9.375Y-6.5625
X9.5625Y-7.3125
X9.75Y-5.8125
X9.9375Y-8.0625
X10.125Y-4.6875
X10.125Y-6.5625
X10.3125Y-7.3125
X10.5Y-5.8125
X10.6875Y-8.0625
X10.875Y-4.6875
X10.875Y-6.5625
X11.0625Y-7.3125
X11.0625Y-9.1375
X11.25Y-5.8125
X11.4375Y-8.0625
X11.625Y-6.5625
X11.8125Y-7.3125
X11.8125Y-8.8125
X12.0Y-4.6875
X12.0Y-5.8125
X12.1875Y-8.0625
X12.375Y-6.5625
X12.5625Y-7.3125
X12.6562Y-8.8125
X12.75Y-4.6875
X12.75Y-5.8125
X13.125Y-6.5625
X13.1252Y-8.3875
X13.3125Y-7.3125
X13.4065Y-6.1375
X13.5Y-4.6875
X13.5Y-8.8125
X13.5938Y-8.0625
X13.875Y-5.8125
X14.0623Y-8.3875
X14.1562Y-6.9375
X14.25Y-4.6875
X14.25Y-8.8125
X14.3435Y-6.1375
X14.4812Y-6.469
X14.4812Y-7.406
X15.1875Y-4.6875
X15.1875Y-5.8125
X15.1875Y-6.5625
X15.1875Y-8.8125
X15.9375Y-4.6875
X15.9375Y-5.8125
X15.9375Y-6.5625
X15.9375Y-8.0625
X15.9375Y-8.8125
X16.6875Y-4.6875
X16.6875Y-5.8125
X16.6875Y-6.5625
X16.6875Y-8.8125
X17.5315Y-9.1375
X17.625Y-5.8125
X17.625Y-6.5625
X17.625Y-7.3125
X17.625Y-8.0625
X18.0Y-8.8125
X18.375Y-5.8125
X18.375Y-6.5625
X18.375Y-7.3125
X18.375Y-8.0625
X18.4685Y-9.1375
X19.125Y-5.8125
X19.125Y-6.5625
X19.125Y-7.3125
X19.125Y-8.0625
X19.125Y-8.8125
X19.875Y-5.8125
X19.875Y-6.9375
X19.875Y-8.4375
X20.2Y-6.469
X20.2Y-7.406
X20.2Y-7.969
X20.2Y-8.906
M30
