%TF.GenerationSoftware,KiCad,Pcbnew,7.0.10*%
%TF.CreationDate,2024-01-14T19:19:27+05:30*%
%TF.ProjectId,kbd,6b62642e-6b69-4636-9164-5f7063625858,rev?*%
%TF.SameCoordinates,Original*%
%TF.FileFunction,Copper,L1,Top*%
%TF.FilePolarity,Positive*%
%FSLAX46Y46*%
G04 Gerber Fmt 4.6, Leading zero omitted, Abs format (unit mm)*
G04 Created by KiCad (PCBNEW 7.0.10) date 2024-01-14 19:19:27*
%MOMM*%
%LPD*%
G01*
G04 APERTURE LIST*
%TA.AperFunction,ConnectorPad*%
%ADD10C,3.800000*%
%TD*%
%TA.AperFunction,ComponentPad*%
%ADD11C,2.600000*%
%TD*%
%TA.AperFunction,ComponentPad*%
%ADD12R,1.700000X1.700000*%
%TD*%
%TA.AperFunction,ComponentPad*%
%ADD13O,1.700000X1.700000*%
%TD*%
%TA.AperFunction,ComponentPad*%
%ADD14O,1.000000X1.600000*%
%TD*%
%TA.AperFunction,ComponentPad*%
%ADD15O,1.000000X2.100000*%
%TD*%
%TA.AperFunction,ViaPad*%
%ADD16C,0.800000*%
%TD*%
%TA.AperFunction,ViaPad*%
%ADD17C,1.000000*%
%TD*%
%TA.AperFunction,Conductor*%
%ADD18C,0.250000*%
%TD*%
%TA.AperFunction,Conductor*%
%ADD19C,0.200000*%
%TD*%
G04 APERTURE END LIST*
D10*
%TO.P,H12,1*%
%TO.N,N/C*%
X373856250Y-173831250D03*
D11*
X373856250Y-173831250D03*
%TD*%
D10*
%TO.P,H11,1*%
%TO.N,N/C*%
X209550000Y-176022000D03*
D11*
X209550000Y-176022000D03*
%TD*%
D10*
%TO.P,H10,1*%
%TO.N,N/C*%
X109537500Y-119062500D03*
D11*
X109537500Y-119062500D03*
%TD*%
D10*
%TO.P,H9,1*%
%TO.N,N/C*%
X504952000Y-157988000D03*
D11*
X504952000Y-157988000D03*
%TD*%
D10*
%TO.P,H8,1*%
%TO.N,N/C*%
X245268750Y-230981250D03*
D11*
X245268750Y-230981250D03*
%TD*%
D10*
%TO.P,H7,1*%
%TO.N,N/C*%
X474980000Y-223837500D03*
D11*
X474980000Y-223837500D03*
%TD*%
D10*
%TO.P,H6,1*%
%TO.N,N/C*%
X111918750Y-173831250D03*
D11*
X111918750Y-173831250D03*
%TD*%
D10*
%TO.P,H5,1*%
%TO.N,N/C*%
X373856250Y-230981250D03*
D11*
X373856250Y-230981250D03*
%TD*%
D10*
%TO.P,H4,1*%
%TO.N,N/C*%
X107156250Y-230981250D03*
D11*
X107156250Y-230981250D03*
%TD*%
D10*
%TO.P,H3,1*%
%TO.N,N/C*%
X290512500Y-119062500D03*
D11*
X290512500Y-119062500D03*
%TD*%
D10*
%TO.P,H2,1*%
%TO.N,N/C*%
X204787500Y-119062500D03*
D11*
X204787500Y-119062500D03*
%TD*%
D10*
%TO.P,H1,1*%
%TO.N,N/C*%
X454818750Y-119062500D03*
D11*
X454818750Y-119062500D03*
%TD*%
D12*
%TO.P,J1,1,MISO*%
%TO.N,/AVRISP_MISO*%
X494225000Y-110475000D03*
D13*
%TO.P,J1,2,VCC*%
%TO.N,+5V*%
X494225000Y-113015000D03*
%TO.P,J1,3,SCK*%
%TO.N,/AVRISP_SCK*%
X496765000Y-110475000D03*
%TO.P,J1,4,MOSI*%
%TO.N,/AVRISP_MOSI*%
X496765000Y-113015000D03*
%TO.P,J1,5,~{RST}*%
%TO.N,/NRESET*%
X499305000Y-110475000D03*
%TO.P,J1,6,GND*%
%TO.N,GND*%
X499305000Y-113015000D03*
%TD*%
D14*
%TO.P,J2,S1,SHIELD*%
%TO.N,unconnected-(J2-SHIELD-PadS1)*%
X441925000Y-107430000D03*
D15*
X441925000Y-111610000D03*
D14*
X450565000Y-107430000D03*
D15*
X450565000Y-111610000D03*
%TD*%
D16*
%TO.N,GND*%
X439250000Y-113250000D03*
X457250000Y-114250000D03*
D17*
X426541048Y-126206144D03*
X255091192Y-211931072D03*
X178891256Y-211931072D03*
X494000000Y-125750000D03*
X293191160Y-227706840D03*
X164603768Y-151506904D03*
D16*
X441250000Y-114500000D03*
D17*
X127992080Y-126206144D03*
X178891256Y-189606872D03*
D16*
X452750000Y-115250000D03*
D17*
X208954512Y-211931072D03*
X140791288Y-189606872D03*
X202703080Y-151506904D03*
X251816976Y-173802588D03*
X236041208Y-211931072D03*
D16*
X401000000Y-183808440D03*
D17*
X418504336Y-126206144D03*
D16*
X89000000Y-179250000D03*
X503500000Y-113500000D03*
D17*
X278903672Y-126206144D03*
X226516216Y-227706840D03*
D16*
X327862224Y-198358424D03*
D17*
X100310072Y-211931072D03*
X397966072Y-151506904D03*
X407491064Y-173831104D03*
X140791288Y-211931072D03*
X175617040Y-173802588D03*
X307478648Y-126206144D03*
X507205824Y-184249064D03*
D16*
X148500000Y-133250000D03*
D17*
X459878520Y-189606872D03*
D16*
X219750000Y-219000000D03*
X440000000Y-114500000D03*
X450250000Y-115250000D03*
D17*
X336053624Y-173831104D03*
X450353528Y-227706840D03*
X255091192Y-189606872D03*
X193178744Y-126206144D03*
X469403512Y-211931072D03*
D16*
X329862224Y-199358424D03*
X451500000Y-114250000D03*
D17*
X442316816Y-211931072D03*
X113704592Y-211931072D03*
X467750000Y-119750000D03*
X121741304Y-211931072D03*
X89892112Y-150613936D03*
D16*
X88250000Y-178250000D03*
D17*
X499169112Y-184249064D03*
D16*
X329362224Y-198358424D03*
X455500000Y-115250000D03*
D17*
X326528632Y-126206144D03*
D16*
X455750000Y-113500000D03*
D17*
X297953656Y-151506904D03*
X91082736Y-210740448D03*
D16*
X337250000Y-147500000D03*
D17*
X388441080Y-126206144D03*
X317003640Y-151506904D03*
X164603768Y-173831104D03*
X221753720Y-126206144D03*
X331291128Y-189606872D03*
D16*
X89750000Y-178250000D03*
D17*
X380404368Y-126206144D03*
X155078776Y-126206144D03*
X197941240Y-211931072D03*
X399454352Y-173831104D03*
X157460024Y-227706840D03*
X417016056Y-227706840D03*
X293191160Y-211931072D03*
X297953656Y-173802588D03*
X94654608Y-173831104D03*
X133647544Y-227706840D03*
X202703736Y-173802588D03*
X88403832Y-227706840D03*
X136028792Y-126206144D03*
X126503800Y-173831104D03*
X299441936Y-126206144D03*
X274141176Y-211931072D03*
X502250000Y-120750000D03*
X481607408Y-151748184D03*
D16*
X220750000Y-219750000D03*
X219750000Y-217750000D03*
D17*
X336053624Y-227706840D03*
X278903672Y-151506904D03*
X259853688Y-126206144D03*
D16*
X327362224Y-199358424D03*
D17*
X289916944Y-173802588D03*
X461366800Y-211931072D03*
D16*
X442000000Y-113500000D03*
X402000000Y-183058440D03*
D17*
X126503800Y-151506904D03*
X174128760Y-126206144D03*
D16*
X451500000Y-115824000D03*
D17*
X147042064Y-126206144D03*
X151804560Y-211931072D03*
X491250000Y-122000000D03*
X166092048Y-126206144D03*
X461366800Y-173831104D03*
X170854544Y-211931072D03*
X399454352Y-211931072D03*
X232766992Y-173802588D03*
X216991224Y-189606872D03*
D16*
X401000000Y-182308440D03*
X148500000Y-131750000D03*
D17*
X488453496Y-173831104D03*
X240803704Y-126206144D03*
D16*
X147500000Y-131250000D03*
D17*
X480416784Y-173831104D03*
X312241144Y-211931072D03*
D16*
X454000000Y-115824000D03*
D17*
X478928504Y-227706840D03*
D16*
X454000000Y-114250000D03*
D17*
X317003640Y-173831104D03*
X491099998Y-124250000D03*
X109835064Y-227706840D03*
X285154448Y-211931072D03*
X480500000Y-112250000D03*
X274141176Y-189606872D03*
D16*
X452750000Y-113000000D03*
D17*
X440828536Y-151506904D03*
X236041208Y-189606872D03*
X440828536Y-189606872D03*
X183653752Y-173802588D03*
X183653752Y-151506904D03*
D16*
X438750000Y-114500000D03*
D17*
X388441080Y-173831104D03*
X270866960Y-126206144D03*
X347959864Y-211931072D03*
X397966072Y-227706840D03*
D16*
X446750000Y-114500000D03*
D17*
X121741304Y-189606872D03*
D16*
X147500000Y-133750000D03*
D17*
X221753720Y-173802588D03*
D16*
X402000000Y-181808440D03*
D17*
X508991760Y-220265440D03*
D16*
X87750000Y-179250000D03*
X328612224Y-199358424D03*
D17*
X488453496Y-211931072D03*
X159841272Y-211931072D03*
D16*
X336250000Y-149500000D03*
D17*
X314622392Y-227706840D03*
X102691320Y-173831104D03*
X352722360Y-180379536D03*
X240803704Y-173802588D03*
X442316816Y-173831104D03*
X450353528Y-211931072D03*
D16*
X503750000Y-186250000D03*
D17*
X145553784Y-173831104D03*
X228004496Y-211931072D03*
D16*
X503000000Y-187250000D03*
D17*
X159841272Y-189606872D03*
D16*
X504250000Y-187250000D03*
D17*
X95547576Y-189904528D03*
X355103608Y-227706840D03*
X345578616Y-151506904D03*
X137517072Y-173831104D03*
X118467088Y-173831104D03*
X337541904Y-126206144D03*
D16*
X502250000Y-186250000D03*
D17*
X364628600Y-126206144D03*
X318491920Y-126206144D03*
X491500000Y-119750000D03*
X97928824Y-126206144D03*
X259853688Y-151506904D03*
X145553784Y-151506904D03*
X293191160Y-189606872D03*
X469403512Y-173831104D03*
D16*
X220750000Y-218250000D03*
D17*
X247054480Y-211931072D03*
X266104464Y-211931072D03*
X345578616Y-126206144D03*
X499466768Y-221456064D03*
X312241144Y-189606872D03*
X197941240Y-189606872D03*
X339923152Y-211931072D03*
D16*
X90250000Y-179250000D03*
D17*
X380404368Y-173831104D03*
D16*
X450000000Y-113500000D03*
X336250000Y-148000000D03*
D17*
X478928504Y-189606872D03*
D16*
X440500000Y-113250000D03*
D17*
X497977832Y-151507560D03*
X407491064Y-211931072D03*
X89892112Y-126206144D03*
X107453816Y-151506904D03*
X132754576Y-211931072D03*
X450353528Y-173831104D03*
X482250000Y-134750000D03*
D16*
X219750000Y-220250000D03*
D17*
X378916088Y-151506904D03*
D16*
X147500000Y-132500000D03*
D17*
X474250000Y-133500000D03*
X418504336Y-173831104D03*
X185142032Y-126206144D03*
X304204432Y-211931072D03*
X194667024Y-173802588D03*
X189904528Y-211931072D03*
X480416784Y-211931072D03*
X356591888Y-126206144D03*
X232766992Y-126206144D03*
X270866960Y-173802588D03*
X278903672Y-173802588D03*
D16*
X501750000Y-187250000D03*
D17*
X399454352Y-126206144D03*
X221753720Y-151506904D03*
X156567056Y-173831104D03*
X259853688Y-173802588D03*
X407491064Y-126206144D03*
X459877864Y-151507560D03*
X417016056Y-151506904D03*
X240803704Y-151506904D03*
X378916088Y-227706840D03*
X308966928Y-173831104D03*
X216991224Y-211931072D03*
X328016912Y-173831104D03*
X467750000Y-130250000D03*
D16*
X337250000Y-150000000D03*
D17*
X251816976Y-126206144D03*
D16*
X337250000Y-148750000D03*
D17*
X213717008Y-173802588D03*
X426243392Y-174128760D03*
X473500000Y-113250000D03*
X213717008Y-126206144D03*
D16*
X402000000Y-184308440D03*
%TO.N,+5V*%
X342750000Y-148750000D03*
D17*
X481905064Y-208897480D03*
X153292840Y-208897480D03*
X378618432Y-122931928D03*
X491500000Y-117750000D03*
X499466112Y-155079432D03*
X443805096Y-208897480D03*
X223242000Y-155078776D03*
D16*
X141000000Y-131750000D03*
X343750000Y-148000000D03*
X407500000Y-183058440D03*
D17*
X97035856Y-193178744D03*
X352722360Y-182165472D03*
D16*
X327362224Y-204858424D03*
D17*
X305692712Y-208897480D03*
X297656000Y-122931928D03*
D16*
X456500000Y-107750000D03*
X142000000Y-131250000D03*
X501750000Y-192750000D03*
D17*
X355103608Y-230088088D03*
D16*
X502250000Y-193750000D03*
D17*
X272355240Y-170768996D03*
X499169112Y-180081880D03*
X147042064Y-155078776D03*
X185142032Y-155078776D03*
D16*
X89750000Y-185750000D03*
D17*
X450353528Y-230088088D03*
D16*
X437500000Y-119750000D03*
D17*
X294679440Y-193178744D03*
X230981056Y-122931928D03*
D16*
X329362224Y-205858424D03*
D17*
X108942096Y-155078776D03*
D16*
X504250000Y-192750000D03*
X503000000Y-192750000D03*
D17*
X400942632Y-170797512D03*
X139005352Y-170797512D03*
X196155304Y-170768996D03*
X183356096Y-122931928D03*
D16*
X407500000Y-181808440D03*
D17*
X211931072Y-122931928D03*
X478928504Y-230088088D03*
X127992080Y-155078776D03*
X397668416Y-122931928D03*
D16*
X503500000Y-110500000D03*
D17*
X336053624Y-230088088D03*
D16*
X329862224Y-204858424D03*
D17*
X332779408Y-193178744D03*
X126206144Y-122931928D03*
X442316816Y-155078776D03*
X93761640Y-208897480D03*
X480416784Y-193178744D03*
X119955368Y-170797512D03*
X347066896Y-155078776D03*
D16*
X87750000Y-184750000D03*
X89000000Y-184750000D03*
D17*
X286642728Y-208897480D03*
X318491920Y-155078776D03*
D16*
X436250000Y-120500000D03*
D17*
X399454352Y-155078776D03*
D16*
X142000000Y-132500000D03*
D17*
X473500000Y-115250000D03*
X267592744Y-208897480D03*
X316705984Y-122931928D03*
X418504336Y-155078776D03*
X299441936Y-155078776D03*
X484000000Y-131000000D03*
D16*
X214250000Y-220250000D03*
D17*
X310455208Y-170797512D03*
D16*
X503750000Y-193750000D03*
X142000000Y-133750000D03*
D17*
X443805096Y-170797512D03*
X204191360Y-155078776D03*
D16*
X408500000Y-183808440D03*
X437500000Y-118000000D03*
D17*
X381892648Y-170797512D03*
D16*
X458750000Y-109000000D03*
D17*
X417016056Y-230088088D03*
X199429520Y-193178744D03*
D16*
X88250000Y-185750000D03*
X141000000Y-133250000D03*
D17*
X261341968Y-155078776D03*
X256579472Y-193178744D03*
X157460024Y-230088088D03*
X133647544Y-230088088D03*
X275629456Y-193178744D03*
X218479504Y-193178744D03*
X314622392Y-230088088D03*
D16*
X90250000Y-184750000D03*
D17*
X172342824Y-208897480D03*
X416718400Y-122931928D03*
X145256128Y-122931928D03*
X354805952Y-122931928D03*
D16*
X328612224Y-204858424D03*
D17*
X115192872Y-208897480D03*
X400942632Y-208897480D03*
X461366800Y-193178744D03*
D16*
X343750000Y-149500000D03*
D17*
X89892112Y-155078776D03*
D16*
X455000000Y-107750000D03*
D17*
X250031040Y-122931928D03*
D16*
X458000000Y-107750000D03*
X407500000Y-184308440D03*
D17*
X166092048Y-155078776D03*
X229492776Y-208897480D03*
X248542760Y-208897480D03*
X480416128Y-155079432D03*
X164306112Y-122931928D03*
D16*
X213250000Y-219750000D03*
D17*
X499466768Y-217288880D03*
X380404368Y-155078776D03*
D16*
X213250000Y-218250000D03*
D17*
X269081024Y-122931928D03*
X89892112Y-121741304D03*
X378916088Y-230088088D03*
D16*
X455750000Y-106500000D03*
D17*
X462855080Y-170797512D03*
X280391952Y-155078776D03*
D16*
X408500000Y-182308440D03*
D17*
X470250000Y-131250000D03*
X329505192Y-170797512D03*
D16*
X457250000Y-106500000D03*
D17*
X191392808Y-208897480D03*
D16*
X436250000Y-119000000D03*
D17*
X234255272Y-170768996D03*
X158055336Y-170797512D03*
X419992616Y-170797512D03*
X215205288Y-170768996D03*
X210442792Y-208897480D03*
D16*
X214250000Y-217750000D03*
D17*
X293191160Y-230088088D03*
X341411432Y-208897480D03*
X335755968Y-122931928D03*
X461366144Y-155079432D03*
X237529488Y-193178744D03*
X471000000Y-118500000D03*
D16*
X214250000Y-219000000D03*
D17*
X110744000Y-231140000D03*
X161329552Y-193178744D03*
X242291984Y-155078776D03*
D16*
X438500000Y-119000000D03*
X454750000Y-109000000D03*
D17*
X180379536Y-193178744D03*
X462855080Y-208897480D03*
D16*
X327862224Y-205858424D03*
X458750000Y-106500000D03*
D17*
X226516216Y-230088088D03*
X88403832Y-230088088D03*
X142279568Y-193178744D03*
X442316816Y-193178744D03*
X291405224Y-170768996D03*
D16*
X436250000Y-117500000D03*
X342750000Y-147500000D03*
D17*
X313729424Y-193178744D03*
D16*
X438500000Y-120500000D03*
D17*
X481905064Y-170797512D03*
X123229584Y-193178744D03*
X177105320Y-170768996D03*
X253305256Y-170768996D03*
X134242856Y-208897480D03*
X94654608Y-169663920D03*
X397966072Y-230088088D03*
D16*
X342750000Y-150000000D03*
%TO.N,ROW0*%
X375939528Y-122931928D03*
X473273040Y-118169432D03*
X481000000Y-119500000D03*
X375939528Y-129069000D03*
%TO.N,ROW1*%
X462875000Y-124125000D03*
X377130152Y-121605368D03*
X478375000Y-124125000D03*
X377130152Y-129794000D03*
%TO.N,ROW2*%
X475058976Y-149125656D03*
X476249600Y-136500400D03*
%TO.N,ROW3*%
X471000000Y-140750000D03*
X373343000Y-167423000D03*
X395500000Y-137500000D03*
X471000000Y-137500000D03*
%TO.N,ROW4*%
X341709088Y-194369368D03*
X513158944Y-177700632D03*
X485902000Y-118872000D03*
X343495024Y-169230328D03*
%TO.N,ROW5*%
X477175000Y-133000000D03*
X476249600Y-186332656D03*
%TO.N,ROW6*%
X473868352Y-188416248D03*
X475000000Y-135250000D03*
X472380072Y-195857648D03*
%TO.N,ROW7*%
X282773200Y-225027936D03*
X297358344Y-207763888D03*
X504824576Y-207330296D03*
X496824000Y-141224000D03*
%TO.N,ROW8*%
X471932000Y-226380280D03*
X493750000Y-138250000D03*
%TO.N,COL0*%
X306832000Y-166370000D03*
X458985552Y-181000000D03*
X354210640Y-109765000D03*
X298958000Y-213106000D03*
X462250000Y-135890000D03*
X314198000Y-137414000D03*
X354584000Y-118618000D03*
X483250000Y-126250000D03*
X473250000Y-129750000D03*
X303022000Y-196342000D03*
%TO.N,COL1*%
X473500000Y-131000000D03*
X377190000Y-118110000D03*
X92710000Y-162222520D03*
X333502000Y-137414000D03*
X126238000Y-118618000D03*
X318262000Y-213106000D03*
X325882000Y-166370000D03*
X324612000Y-196342000D03*
X482500000Y-127250000D03*
X478750000Y-181250000D03*
%TO.N,COL2*%
X374396000Y-137414000D03*
X353314000Y-171704000D03*
X338328000Y-200152000D03*
X397668416Y-118467088D03*
X322250000Y-216408000D03*
X116332000Y-166370000D03*
X113853420Y-195411164D03*
X145288000Y-118618000D03*
X116332000Y-177038000D03*
%TO.N,COL3*%
X412750000Y-158754000D03*
X381254000Y-213106000D03*
X169366264Y-109040000D03*
X414250000Y-139000000D03*
X164338000Y-118618000D03*
X133858000Y-196596000D03*
X416306000Y-118618000D03*
X135636000Y-166370000D03*
X395750000Y-200250000D03*
X135636000Y-176276000D03*
%TO.N,COL4*%
X438750000Y-166716000D03*
X154432000Y-166370000D03*
X314750000Y-157250000D03*
X315468000Y-147320000D03*
X183388000Y-118618000D03*
X438000000Y-212500000D03*
X154432000Y-175514000D03*
X438750000Y-202250000D03*
X447000000Y-138250000D03*
X151638000Y-196342000D03*
%TO.N,COL5*%
X458750000Y-128500000D03*
X415750000Y-167877984D03*
X480500000Y-125250000D03*
X384975000Y-215000000D03*
X173736000Y-175514000D03*
X171450000Y-196088000D03*
X173736000Y-166370000D03*
X459500000Y-204250000D03*
X181610000Y-137414000D03*
X334772000Y-148844000D03*
X211836000Y-118618000D03*
X456500000Y-211000000D03*
X334000000Y-158000000D03*
%TO.N,COL6*%
X415825432Y-131318000D03*
X383083272Y-131318000D03*
X427434016Y-214750000D03*
X201168000Y-137414000D03*
X230886000Y-118618000D03*
X192532000Y-176276000D03*
X192532000Y-166370000D03*
X419992616Y-158750000D03*
X478500000Y-204250000D03*
X377698000Y-142748000D03*
X189738000Y-196088000D03*
X475750000Y-211000000D03*
%TO.N,COL7*%
X399750000Y-132080000D03*
X452500000Y-214376000D03*
X457500000Y-132080000D03*
X249936000Y-118618000D03*
X209550000Y-196088000D03*
X399625000Y-140875000D03*
X494538000Y-214376000D03*
X491998000Y-214376000D03*
X219710000Y-137414000D03*
X457500000Y-164250000D03*
X216408000Y-176784000D03*
X211582000Y-166370000D03*
%TO.N,COL8*%
X429250000Y-157750000D03*
X418750000Y-132842000D03*
X268986000Y-118618000D03*
X230886000Y-176276000D03*
X220726000Y-214376000D03*
X417000000Y-143000000D03*
X437500000Y-219250000D03*
X238506000Y-137414000D03*
X230886000Y-166370000D03*
X227838000Y-196342000D03*
%TO.N,COL9*%
X297688000Y-118618000D03*
X257810000Y-137414000D03*
X478750000Y-219250000D03*
X249682000Y-176276000D03*
X249682000Y-166370000D03*
X440750000Y-133567000D03*
X440750000Y-140000000D03*
X242062000Y-213360000D03*
X495300000Y-173736000D03*
X483250000Y-123000000D03*
X247396000Y-196342000D03*
%TO.N,COL10*%
X93761640Y-185439688D03*
X276098000Y-137414000D03*
X117348000Y-216154000D03*
X459134000Y-134366000D03*
X268732000Y-166370000D03*
X316484000Y-118618000D03*
X259842000Y-213106000D03*
X268732000Y-176276000D03*
X265430000Y-196342000D03*
X459500000Y-142577224D03*
%TO.N,COL11*%
X455500000Y-135128000D03*
X295402000Y-137414000D03*
X278892000Y-213106000D03*
X287782000Y-166370000D03*
X453330088Y-177998288D03*
X283972000Y-196342000D03*
X455500000Y-140623320D03*
X335788000Y-118618000D03*
X149125656Y-217170000D03*
X121443648Y-186035000D03*
%TO.N,/ARGB LED STRING/Dout37*%
X510777696Y-180974848D03*
X509016000Y-152146000D03*
%TO.N,/ARGB LED STRING/Dout57*%
X98524136Y-190797496D03*
X96440544Y-173831104D03*
%TO.N,/ARGB LED STRING/Dout74*%
X491490000Y-192786000D03*
X491490000Y-196088000D03*
%TD*%
D18*
%TO.N,COL9*%
X486556000Y-215500000D02*
X482500000Y-215500000D01*
X494538000Y-207518000D02*
X486556000Y-215500000D01*
X494538000Y-187452000D02*
X494538000Y-207518000D01*
X495300000Y-186690000D02*
X494538000Y-187452000D01*
X495300000Y-173736000D02*
X495300000Y-186690000D01*
X482500000Y-215500000D02*
X478750000Y-219250000D01*
X495250000Y-135000000D02*
X483250000Y-123000000D01*
X495250000Y-173686000D02*
X495250000Y-135000000D01*
X495300000Y-173736000D02*
X495250000Y-173686000D01*
%TO.N,ROW8*%
X471932000Y-209104928D02*
X471932000Y-226380280D01*
X492760000Y-186690000D02*
X492760000Y-188276928D01*
X492760000Y-188276928D02*
X471932000Y-209104928D01*
X493750000Y-185700000D02*
X492760000Y-186690000D01*
X493750000Y-138250000D02*
X493750000Y-185700000D01*
%TO.N,COL7*%
X216166224Y-189471776D02*
X209550000Y-196088000D01*
X216166224Y-189265145D02*
X216166224Y-189471776D01*
X216408000Y-189023369D02*
X216166224Y-189265145D01*
X216408000Y-176784000D02*
X216408000Y-189023369D01*
X211582000Y-169418000D02*
X211582000Y-166370000D01*
X216408000Y-174244000D02*
X211582000Y-169418000D01*
X216408000Y-176784000D02*
X216408000Y-174244000D01*
%TO.N,ROW7*%
X496824000Y-159004000D02*
X504066000Y-166246000D01*
X504824576Y-207168576D02*
X504824576Y-207330296D01*
X508250000Y-203743152D02*
X504824576Y-207168576D01*
X508250000Y-175250000D02*
X508250000Y-203743152D01*
X496824000Y-141224000D02*
X496824000Y-159004000D01*
X504066000Y-166246000D02*
X504066000Y-171066000D01*
X504066000Y-171066000D02*
X508250000Y-175250000D01*
%TO.N,COL9*%
X278618264Y-128289736D02*
X283718000Y-123190000D01*
X266934264Y-128289736D02*
X278618264Y-128289736D01*
X257810000Y-137414000D02*
X266934264Y-128289736D01*
X283718000Y-123190000D02*
X293116000Y-123190000D01*
X293116000Y-123190000D02*
X297688000Y-118618000D01*
%TO.N,COL10*%
X306578000Y-128524000D02*
X316484000Y-118618000D01*
X284988000Y-128524000D02*
X306578000Y-128524000D01*
X276098000Y-137414000D02*
X284988000Y-128524000D01*
D19*
%TO.N,ROW0*%
X375939528Y-122931928D02*
X375939528Y-129069000D01*
D18*
X478669432Y-118169432D02*
X480000000Y-119500000D01*
X473273040Y-118169432D02*
X478669432Y-118169432D01*
X480000000Y-119500000D02*
X481000000Y-119500000D01*
%TO.N,ROW1*%
X463000000Y-124000000D02*
X478250000Y-124000000D01*
X462875000Y-124125000D02*
X463000000Y-124000000D01*
X377130152Y-129794000D02*
X377130152Y-121605368D01*
X478250000Y-124000000D02*
X478375000Y-124125000D01*
%TO.N,ROW2*%
X476249600Y-147935032D02*
X475058976Y-149125656D01*
X476249600Y-136500400D02*
X476249600Y-147935032D01*
%TO.N,ROW3*%
X384556000Y-158242000D02*
X395500000Y-147298000D01*
X382524000Y-158242000D02*
X384556000Y-158242000D01*
X471000000Y-140750000D02*
X471000000Y-137500000D01*
X373343000Y-167423000D02*
X382524000Y-158242000D01*
X395500000Y-147298000D02*
X395500000Y-137500000D01*
%TO.N,ROW4*%
X485902000Y-118872000D02*
X486122000Y-118872000D01*
X515620000Y-144780000D02*
X515620000Y-167132000D01*
X345280960Y-171016264D02*
X343495024Y-169230328D01*
X491744000Y-120904000D02*
X515620000Y-144780000D01*
X341709088Y-194369368D02*
X345280960Y-190797496D01*
X486122000Y-118872000D02*
X488154000Y-120904000D01*
X513158944Y-169593056D02*
X513158944Y-177700632D01*
X345280960Y-190797496D02*
X345280960Y-171016264D01*
X488154000Y-120904000D02*
X491744000Y-120904000D01*
X515620000Y-167132000D02*
X513158944Y-169593056D01*
%TO.N,ROW5*%
X477440224Y-149720968D02*
X477440224Y-133265224D01*
X476249600Y-150911592D02*
X477440224Y-149720968D01*
X476249600Y-186332656D02*
X476249600Y-150911592D01*
X477440224Y-133265224D02*
X477175000Y-133000000D01*
%TO.N,ROW6*%
X472380072Y-195857648D02*
X473868352Y-194369368D01*
X473868352Y-147637376D02*
X475000000Y-146505728D01*
X475000000Y-146505728D02*
X475000000Y-135250000D01*
X473868352Y-188416248D02*
X473868352Y-147637376D01*
X473868352Y-194369368D02*
X473868352Y-188416248D01*
%TO.N,ROW7*%
X297358344Y-207763888D02*
X297358344Y-210442792D01*
X297358344Y-210442792D02*
X282773200Y-225027936D01*
%TO.N,COL0*%
X314198000Y-137414000D02*
X314198000Y-155956000D01*
X476750000Y-126250000D02*
X473250000Y-129750000D01*
X306832000Y-192532000D02*
X306832000Y-166370000D01*
X458985552Y-181000000D02*
X458985552Y-145764448D01*
X328422000Y-131826000D02*
X319786000Y-131826000D01*
X298958000Y-213106000D02*
X301752000Y-210312000D01*
X462250000Y-142500000D02*
X462250000Y-135890000D01*
X354584000Y-110138360D02*
X354584000Y-118618000D01*
X319786000Y-131826000D02*
X314198000Y-137414000D01*
X483250000Y-126250000D02*
X476750000Y-126250000D01*
X338074000Y-122174000D02*
X328422000Y-131826000D01*
X303022000Y-196342000D02*
X306832000Y-192532000D01*
X301752000Y-210312000D02*
X301752000Y-197612000D01*
X354584000Y-118618000D02*
X351028000Y-122174000D01*
X306832000Y-163322000D02*
X306832000Y-166370000D01*
X458985552Y-145764448D02*
X462250000Y-142500000D01*
X301752000Y-197612000D02*
X303022000Y-196342000D01*
X351028000Y-122174000D02*
X338074000Y-122174000D01*
X354210640Y-109765000D02*
X354584000Y-110138360D01*
X314198000Y-155956000D02*
X306832000Y-163322000D01*
%TO.N,COL1*%
X377190000Y-118110000D02*
X367605576Y-127694424D01*
X325882000Y-188468000D02*
X324612000Y-189738000D01*
X104648000Y-150145536D02*
X104648000Y-140208000D01*
X330454000Y-159512000D02*
X326136000Y-163830000D01*
X367605576Y-127694424D02*
X343221576Y-127694424D01*
X333502000Y-156464000D02*
X333502000Y-137414000D01*
X324612000Y-189738000D02*
X324612000Y-196342000D01*
X343221576Y-127694424D02*
X333502000Y-137414000D01*
X482500000Y-130075672D02*
X482500000Y-127250000D01*
X324612000Y-196342000D02*
X324612000Y-206756000D01*
X324612000Y-206756000D02*
X318262000Y-213106000D01*
X326136000Y-166116000D02*
X325882000Y-166370000D01*
X477250000Y-127250000D02*
X482500000Y-127250000D01*
X326136000Y-163830000D02*
X326136000Y-166116000D01*
X473500000Y-131000000D02*
X477250000Y-127250000D01*
X478750000Y-181250000D02*
X478750000Y-133825672D01*
X330454000Y-159512000D02*
X333502000Y-156464000D01*
X92710000Y-162083536D02*
X104648000Y-150145536D01*
X104648000Y-140208000D02*
X126238000Y-118618000D01*
X92710000Y-162222520D02*
X92710000Y-162083536D01*
X325882000Y-166370000D02*
X325882000Y-188468000D01*
X478750000Y-133825672D02*
X482500000Y-130075672D01*
%TO.N,COL2*%
X388441080Y-128587392D02*
X383083272Y-128587392D01*
X116332000Y-192932584D02*
X116332000Y-177038000D01*
X397668416Y-118467088D02*
X397668416Y-119360056D01*
X397668416Y-119360056D02*
X388441080Y-128587392D01*
X346769240Y-191710760D02*
X338328000Y-200152000D01*
X374396000Y-150622000D02*
X374396000Y-137414000D01*
X122682000Y-156464000D02*
X116332000Y-162814000D01*
X145288000Y-118618000D02*
X143767848Y-120138152D01*
X143767848Y-124964152D02*
X122682000Y-146050000D01*
X116332000Y-166370000D02*
X116332000Y-177038000D01*
X346769240Y-178248760D02*
X346769240Y-191710760D01*
X383083272Y-128587392D02*
X374396000Y-137274664D01*
X353314000Y-171704000D02*
X346769240Y-178248760D01*
X353314000Y-171704000D02*
X374396000Y-150622000D01*
X113853420Y-195411164D02*
X116332000Y-192932584D01*
X122682000Y-146050000D02*
X122682000Y-156464000D01*
X322250000Y-216408000D02*
X338328000Y-200330000D01*
X143767848Y-120138152D02*
X143767848Y-124964152D01*
X374396000Y-137274664D02*
X374396000Y-137414000D01*
X338328000Y-200330000D02*
X338328000Y-200152000D01*
X116332000Y-162814000D02*
X116332000Y-166370000D01*
%TO.N,COL3*%
X161329552Y-124928448D02*
X144272000Y-141986000D01*
X414250000Y-157254000D02*
X412750000Y-158754000D01*
X381254000Y-213106000D02*
X382894000Y-213106000D01*
X414250000Y-139000000D02*
X414250000Y-157254000D01*
X416306000Y-118694000D02*
X416306000Y-118618000D01*
X164338000Y-118618000D02*
X164338000Y-114068264D01*
X144272000Y-141986000D02*
X144272000Y-153670000D01*
X395750000Y-200250000D02*
X412750000Y-183250000D01*
X412750000Y-183250000D02*
X412750000Y-158754000D01*
X414250000Y-139000000D02*
X414250000Y-120750000D01*
X164338000Y-118618000D02*
X161329552Y-121626448D01*
X135636000Y-162306000D02*
X135636000Y-166370000D01*
X382894000Y-213106000D02*
X395750000Y-200250000D01*
X135636000Y-166370000D02*
X135636000Y-176276000D01*
X135636000Y-194818000D02*
X135636000Y-176276000D01*
X144272000Y-153670000D02*
X135636000Y-162306000D01*
X414250000Y-120750000D02*
X416306000Y-118694000D01*
X161329552Y-121626448D02*
X161329552Y-124928448D01*
X133858000Y-196596000D02*
X135636000Y-194818000D01*
X164338000Y-114068264D02*
X169366264Y-109040000D01*
%TO.N,COL4*%
X438750000Y-146250000D02*
X446750000Y-138250000D01*
X438750000Y-211750000D02*
X438750000Y-202250000D01*
X154432000Y-166370000D02*
X154432000Y-175514000D01*
X315468000Y-156532000D02*
X315468000Y-147320000D01*
X151638000Y-196342000D02*
X154432000Y-193548000D01*
X446750000Y-138250000D02*
X447000000Y-138250000D01*
X180379536Y-121626464D02*
X180379536Y-125436464D01*
X438750000Y-166716000D02*
X438750000Y-146250000D01*
X183388000Y-118618000D02*
X180379536Y-121626464D01*
X154432000Y-193548000D02*
X154432000Y-175514000D01*
X314750000Y-157250000D02*
X315468000Y-156532000D01*
X161290000Y-144526000D02*
X161290000Y-155956000D01*
X438750000Y-166716000D02*
X438750000Y-202250000D01*
X438000000Y-212500000D02*
X438750000Y-211750000D01*
X154432000Y-162814000D02*
X154432000Y-166370000D01*
X180379536Y-125436464D02*
X161290000Y-144526000D01*
X161290000Y-155956000D02*
X154432000Y-162814000D01*
%TO.N,COL5*%
X202164264Y-128289736D02*
X190734264Y-128289736D01*
X181610000Y-154940000D02*
X173736000Y-162814000D01*
X459500000Y-208000000D02*
X456500000Y-211000000D01*
X171450000Y-196088000D02*
X173736000Y-193802000D01*
X190734264Y-128289736D02*
X181610000Y-137414000D01*
X211836000Y-118618000D02*
X202164264Y-128289736D01*
X415750000Y-184250000D02*
X385000000Y-215000000D01*
X181610000Y-137414000D02*
X181610000Y-154940000D01*
X415750000Y-167877984D02*
X415750000Y-184250000D01*
X334772000Y-157228000D02*
X334772000Y-148844000D01*
X458750000Y-128500000D02*
X459737347Y-127512653D01*
X476250000Y-125250000D02*
X480500000Y-125250000D01*
X385000000Y-215000000D02*
X384975000Y-215000000D01*
X473987347Y-127512653D02*
X476250000Y-125250000D01*
X459500000Y-204250000D02*
X459500000Y-208000000D01*
X173736000Y-166370000D02*
X173736000Y-175514000D01*
X173736000Y-193802000D02*
X173736000Y-175514000D01*
X334000000Y-158000000D02*
X334772000Y-157228000D01*
X459737347Y-127512653D02*
X473987347Y-127512653D01*
X173736000Y-162814000D02*
X173736000Y-166370000D01*
%TO.N,COL6*%
X419992616Y-158750000D02*
X419992616Y-158650648D01*
X377698000Y-142748000D02*
X377698000Y-136703272D01*
X201168000Y-137414000D02*
X201168000Y-154178000D01*
X419992616Y-158750000D02*
X420091968Y-158750000D01*
X192532000Y-193294000D02*
X192532000Y-176276000D01*
X419992616Y-158650648D02*
X415825432Y-154483464D01*
X201168000Y-154178000D02*
X192532000Y-162814000D01*
X427434016Y-166092048D02*
X427434016Y-214750000D01*
X377698000Y-136703272D02*
X383083272Y-131318000D01*
X221214264Y-128289736D02*
X210145136Y-128289736D01*
X192532000Y-162814000D02*
X192532000Y-166370000D01*
X420091968Y-158750000D02*
X427434016Y-166092048D01*
X475750000Y-211000000D02*
X478500000Y-208250000D01*
X478500000Y-208250000D02*
X478500000Y-204250000D01*
X201168000Y-137266872D02*
X201168000Y-137414000D01*
X192532000Y-176276000D02*
X192532000Y-166370000D01*
X415825432Y-154483464D02*
X415825432Y-131318000D01*
X230886000Y-118618000D02*
X221214264Y-128289736D01*
X189738000Y-196088000D02*
X192532000Y-193294000D01*
X210145136Y-128289736D02*
X201168000Y-137266872D01*
%TO.N,COL7*%
X457500000Y-164250000D02*
X457500000Y-132080000D01*
X240264264Y-128289736D02*
X228834264Y-128289736D01*
X452500000Y-214376000D02*
X452500000Y-209750000D01*
X249936000Y-118618000D02*
X240264264Y-128289736D01*
X399750000Y-140750000D02*
X399750000Y-132080000D01*
X228834264Y-128289736D02*
X219710000Y-137414000D01*
X211582000Y-161798000D02*
X211582000Y-166370000D01*
X452500000Y-209750000D02*
X457500000Y-204750000D01*
X494538000Y-214376000D02*
X491998000Y-214376000D01*
X457500000Y-204750000D02*
X457500000Y-164250000D01*
X399625000Y-140875000D02*
X399750000Y-140750000D01*
X219710000Y-137414000D02*
X219710000Y-153670000D01*
X219710000Y-153670000D02*
X211582000Y-161798000D01*
%TO.N,COL8*%
X417000000Y-143000000D02*
X417000000Y-150002568D01*
X247630264Y-128289736D02*
X238506000Y-137414000D01*
X227838000Y-196342000D02*
X230886000Y-193294000D01*
X418750000Y-141250000D02*
X418750000Y-132842000D01*
X238506000Y-155194000D02*
X230886000Y-162814000D01*
X268986000Y-118618000D02*
X259314264Y-128289736D01*
X238506000Y-137414000D02*
X238506000Y-155194000D01*
X429250000Y-157750000D02*
X431750000Y-160250000D01*
X224790000Y-210312000D02*
X224790000Y-199390000D01*
X224790000Y-199390000D02*
X227838000Y-196342000D01*
X417000000Y-143000000D02*
X418750000Y-141250000D01*
X230886000Y-166370000D02*
X230886000Y-176276000D01*
X417000000Y-150002568D02*
X424747432Y-157750000D01*
X431750000Y-213500000D02*
X437500000Y-219250000D01*
X431750000Y-160250000D02*
X431750000Y-213500000D01*
X424747432Y-157750000D02*
X429250000Y-157750000D01*
X220726000Y-214376000D02*
X224790000Y-210312000D01*
X259314264Y-128289736D02*
X247630264Y-128289736D01*
X230886000Y-162814000D02*
X230886000Y-166370000D01*
X230886000Y-193294000D02*
X230886000Y-176276000D01*
%TO.N,COL9*%
X257810000Y-137414000D02*
X257810000Y-154940000D01*
X249682000Y-194056000D02*
X249682000Y-176276000D01*
X242062000Y-213360000D02*
X242316000Y-213360000D01*
X247396000Y-196342000D02*
X249682000Y-194056000D01*
X440750000Y-133567000D02*
X440750000Y-140000000D01*
X244856000Y-198882000D02*
X247396000Y-196342000D01*
X244856000Y-210820000D02*
X244856000Y-198882000D01*
X249682000Y-166370000D02*
X249682000Y-176276000D01*
X242316000Y-213360000D02*
X244856000Y-210820000D01*
X257810000Y-154940000D02*
X249682000Y-163068000D01*
X249682000Y-163068000D02*
X249682000Y-166370000D01*
%TO.N,COL10*%
X93761640Y-196750616D02*
X100607728Y-203596704D01*
X111379088Y-216154000D02*
X117348000Y-216154000D01*
X268732000Y-193040000D02*
X268732000Y-176276000D01*
X459500000Y-142577224D02*
X459000000Y-142077224D01*
X265430000Y-196342000D02*
X268732000Y-193040000D01*
X459000000Y-134500000D02*
X459134000Y-134366000D01*
X259842000Y-213106000D02*
X263398000Y-209550000D01*
X100607728Y-203596704D02*
X100607728Y-205382640D01*
X100607728Y-205382640D02*
X111379088Y-216154000D01*
X263398000Y-209550000D02*
X263398000Y-198374000D01*
X268732000Y-162814000D02*
X268732000Y-166370000D01*
X263398000Y-198374000D02*
X265430000Y-196342000D01*
X276098000Y-155448000D02*
X268732000Y-162814000D01*
X459000000Y-142077224D02*
X459000000Y-134500000D01*
X93761640Y-185439688D02*
X93761640Y-196750616D01*
X268732000Y-176276000D02*
X268732000Y-166370000D01*
X276098000Y-137414000D02*
X276098000Y-155448000D01*
%TO.N,COL11*%
X332560986Y-121845014D02*
X335788000Y-118618000D01*
X299466000Y-133350000D02*
X308669160Y-133350000D01*
X455500000Y-175828376D02*
X455500000Y-135128000D01*
X281686000Y-198628000D02*
X283972000Y-196342000D01*
X138684000Y-215646000D02*
X147601656Y-215646000D01*
X295402000Y-155956000D02*
X287782000Y-163576000D01*
X320174146Y-121845014D02*
X332560986Y-121845014D01*
X278892000Y-213106000D02*
X281686000Y-210312000D01*
X124717864Y-189309216D02*
X124717864Y-201679864D01*
X121443648Y-186035000D02*
X124717864Y-189309216D01*
X281686000Y-210312000D02*
X281686000Y-198628000D01*
X295402000Y-137414000D02*
X299466000Y-133350000D01*
X147601656Y-215646000D02*
X149125656Y-217170000D01*
X453330088Y-177998288D02*
X455500000Y-175828376D01*
X124717864Y-201679864D02*
X138684000Y-215646000D01*
X295402000Y-137414000D02*
X295402000Y-155956000D01*
X287782000Y-163576000D02*
X287782000Y-166370000D01*
X283972000Y-196342000D02*
X287782000Y-192532000D01*
X287782000Y-192532000D02*
X287782000Y-166370000D01*
X308669160Y-133350000D02*
X320174146Y-121845014D01*
%TO.N,/ARGB LED STRING/Dout37*%
X511670664Y-180081880D02*
X510777696Y-180974848D01*
X510032000Y-167386000D02*
X511670664Y-169024664D01*
X509016000Y-152146000D02*
X510032000Y-153162000D01*
X510032000Y-153162000D02*
X510032000Y-167386000D01*
X511670664Y-169024664D02*
X511670664Y-180081880D01*
%TO.N,/ARGB LED STRING/Dout57*%
X95547576Y-187820936D02*
X98524136Y-190797496D01*
X96440544Y-173831104D02*
X95547576Y-174724072D01*
X95547576Y-174724072D02*
X95547576Y-187820936D01*
%TO.N,/ARGB LED STRING/Dout74*%
X491490000Y-196088000D02*
X491490000Y-192786000D01*
%TD*%
M02*
