%TF.GenerationSoftware,KiCad,Pcbnew,7.0.10*%
%TF.CreationDate,2024-01-14T19:19:27+05:30*%
%TF.ProjectId,kbd,6b62642e-6b69-4636-9164-5f7063625858,rev?*%
%TF.SameCoordinates,Original*%
%TF.FileFunction,Soldermask,Top*%
%TF.FilePolarity,Negative*%
%FSLAX46Y46*%
G04 Gerber Fmt 4.6, Leading zero omitted, Abs format (unit mm)*
G04 Created by KiCad (PCBNEW 7.0.10) date 2024-01-14 19:19:27*
%MOMM*%
%LPD*%
G01*
G04 APERTURE LIST*
%ADD10C,3.800000*%
%ADD11C,2.600000*%
%ADD12C,1.701800*%
%ADD13C,3.000000*%
%ADD14C,3.987800*%
%ADD15C,3.048000*%
%ADD16R,1.700000X1.700000*%
%ADD17O,1.700000X1.700000*%
%ADD18C,0.650000*%
%ADD19O,1.000000X1.600000*%
%ADD20O,1.000000X2.100000*%
G04 APERTURE END LIST*
D10*
%TO.C,H12*%
X373856250Y-173831250D03*
D11*
X373856250Y-173831250D03*
%TD*%
D10*
%TO.C,H11*%
X209550000Y-176022000D03*
D11*
X209550000Y-176022000D03*
%TD*%
D10*
%TO.C,H10*%
X109537500Y-119062500D03*
D11*
X109537500Y-119062500D03*
%TD*%
D10*
%TO.C,H9*%
X504952000Y-157988000D03*
D11*
X504952000Y-157988000D03*
%TD*%
D10*
%TO.C,H8*%
X245268750Y-230981250D03*
D11*
X245268750Y-230981250D03*
%TD*%
D10*
%TO.C,H7*%
X474980000Y-223837500D03*
D11*
X474980000Y-223837500D03*
%TD*%
D10*
%TO.C,H6*%
X111918750Y-173831250D03*
D11*
X111918750Y-173831250D03*
%TD*%
D10*
%TO.C,H5*%
X373856250Y-230981250D03*
D11*
X373856250Y-230981250D03*
%TD*%
D10*
%TO.C,H4*%
X107156250Y-230981250D03*
D11*
X107156250Y-230981250D03*
%TD*%
D10*
%TO.C,H3*%
X290512500Y-119062500D03*
D11*
X290512500Y-119062500D03*
%TD*%
D10*
%TO.C,H2*%
X204787500Y-119062500D03*
D11*
X204787500Y-119062500D03*
%TD*%
D10*
%TO.C,H1*%
X454818750Y-119062500D03*
D11*
X454818750Y-119062500D03*
%TD*%
D12*
%TO.C,SW68*%
X275907500Y-185737500D03*
D13*
X277177500Y-183197500D03*
D14*
X280987500Y-185737500D03*
D13*
X283527500Y-180657500D03*
D12*
X286067500Y-185737500D03*
%TD*%
D15*
%TO.C,REF\u002A\u002A*%
X340525000Y-140652500D03*
D14*
X340525000Y-155892500D03*
D15*
X364325000Y-140652500D03*
D14*
X364325000Y-155892500D03*
%TD*%
D12*
%TO.C,SW32*%
X399732500Y-147637500D03*
D13*
X401002500Y-145097500D03*
D14*
X404812500Y-147637500D03*
D13*
X407352500Y-142557500D03*
D12*
X409892500Y-147637500D03*
%TD*%
%TO.C,SW76*%
X113982500Y-204787500D03*
D13*
X115252500Y-202247500D03*
D14*
X119062500Y-204787500D03*
D13*
X121602500Y-199707500D03*
D12*
X124142500Y-204787500D03*
%TD*%
%TO.C,SW63*%
X180657500Y-185737500D03*
D13*
X181927500Y-183197500D03*
D14*
X185737500Y-185737500D03*
D13*
X188277500Y-180657500D03*
D12*
X190817500Y-185737500D03*
%TD*%
%TO.C,SW105*%
X452120000Y-223837500D03*
D13*
X453390000Y-221297500D03*
D14*
X457200000Y-223837500D03*
D13*
X459740000Y-218757500D03*
D12*
X462280000Y-223837500D03*
%TD*%
%TO.C,SW15*%
X399732500Y-119062500D03*
D13*
X401002500Y-116522500D03*
D14*
X404812500Y-119062500D03*
D13*
X407352500Y-113982500D03*
D12*
X409892500Y-119062500D03*
%TD*%
%TO.C,SW51*%
X354488750Y-176212500D03*
D13*
X355758750Y-173672500D03*
D14*
X359568750Y-176212500D03*
D13*
X362108750Y-171132500D03*
D12*
X364648750Y-176212500D03*
%TD*%
%TO.C,SW61*%
X142557500Y-185737500D03*
D13*
X143827500Y-183197500D03*
D14*
X147637500Y-185737500D03*
D13*
X150177500Y-180657500D03*
D12*
X152717500Y-185737500D03*
%TD*%
%TO.C,SW78*%
X152082500Y-204787500D03*
D13*
X153352500Y-202247500D03*
D14*
X157162500Y-204787500D03*
D13*
X159702500Y-199707500D03*
D12*
X162242500Y-204787500D03*
%TD*%
%TO.C,SW65*%
X218757500Y-185737500D03*
D13*
X220027500Y-183197500D03*
D14*
X223837500Y-185737500D03*
D13*
X226377500Y-180657500D03*
D12*
X228917500Y-185737500D03*
%TD*%
%TO.C,SW77*%
X133032500Y-204787500D03*
D13*
X134302500Y-202247500D03*
D14*
X138112500Y-204787500D03*
D13*
X140652500Y-199707500D03*
D12*
X143192500Y-204787500D03*
%TD*%
%TO.C,SW104*%
X418782500Y-223837500D03*
D13*
X420052500Y-221297500D03*
D14*
X423862500Y-223837500D03*
D13*
X426402500Y-218757500D03*
D12*
X428942500Y-223837500D03*
%TD*%
%TO.C,SW12*%
X337820000Y-119062500D03*
D13*
X339090000Y-116522500D03*
D14*
X342900000Y-119062500D03*
D13*
X345440000Y-113982500D03*
D12*
X347980000Y-119062500D03*
%TD*%
D15*
%TO.C,REF\u002A\u002A*%
X497840000Y-226212500D03*
D14*
X513080000Y-226212500D03*
D15*
X497840000Y-202412500D03*
D14*
X513080000Y-202412500D03*
%TD*%
D12*
%TO.C,SW31*%
X380682500Y-147637500D03*
D13*
X381952500Y-145097500D03*
D14*
X385762500Y-147637500D03*
D13*
X388302500Y-142557500D03*
D12*
X390842500Y-147637500D03*
%TD*%
%TO.C,SW80*%
X190182500Y-204787500D03*
D13*
X191452500Y-202247500D03*
D14*
X195262500Y-204787500D03*
D13*
X197802500Y-199707500D03*
D12*
X200342500Y-204787500D03*
%TD*%
%TO.C,SW6*%
X213995000Y-119062500D03*
D13*
X215265000Y-116522500D03*
D14*
X219075000Y-119062500D03*
D13*
X221615000Y-113982500D03*
D12*
X224155000Y-119062500D03*
%TD*%
%TO.C,SW11*%
X318770000Y-119062500D03*
D13*
X320040000Y-116522500D03*
D14*
X323850000Y-119062500D03*
D13*
X326390000Y-113982500D03*
D12*
X328930000Y-119062500D03*
%TD*%
%TO.C,SW87*%
X340201250Y-204787500D03*
D13*
X341471250Y-202247500D03*
D14*
X345281250Y-204787500D03*
D13*
X347821250Y-199707500D03*
D12*
X350361250Y-204787500D03*
%TD*%
%TO.C,SW46*%
X252095000Y-166687500D03*
D13*
X253365000Y-164147500D03*
D14*
X257175000Y-166687500D03*
D13*
X259715000Y-161607500D03*
D12*
X262255000Y-166687500D03*
%TD*%
%TO.C,SW17*%
X90170000Y-147637500D03*
D13*
X91440000Y-145097500D03*
D14*
X95250000Y-147637500D03*
D13*
X97790000Y-142557500D03*
D12*
X100330000Y-147637500D03*
%TD*%
%TO.C,SW25*%
X242570000Y-147637500D03*
D13*
X243840000Y-145097500D03*
D14*
X247650000Y-147637500D03*
D13*
X250190000Y-142557500D03*
D12*
X252730000Y-147637500D03*
%TD*%
%TO.C,SW22*%
X185420000Y-147637500D03*
D13*
X186690000Y-145097500D03*
D14*
X190500000Y-147637500D03*
D13*
X193040000Y-142557500D03*
D12*
X195580000Y-147637500D03*
%TD*%
%TO.C,SW60*%
X123507500Y-185737500D03*
D13*
X124777500Y-183197500D03*
D14*
X128587500Y-185737500D03*
D13*
X131127500Y-180657500D03*
D12*
X133667500Y-185737500D03*
%TD*%
%TO.C,SW74*%
X480695000Y-185737500D03*
D13*
X481965000Y-183197500D03*
D14*
X485775000Y-185737500D03*
D13*
X488315000Y-180657500D03*
D12*
X490855000Y-185737500D03*
%TD*%
%TO.C,SW13*%
X356870000Y-119062500D03*
D13*
X358140000Y-116522500D03*
D14*
X361950000Y-119062500D03*
D13*
X364490000Y-113982500D03*
D12*
X367030000Y-119062500D03*
%TD*%
%TO.C,SW29*%
X318770000Y-147637500D03*
D13*
X320040000Y-145097500D03*
D14*
X323850000Y-147637500D03*
D13*
X326390000Y-142557500D03*
D12*
X328930000Y-147637500D03*
%TD*%
%TO.C,SW66*%
X237807500Y-185737500D03*
D13*
X239077500Y-183197500D03*
D14*
X242887500Y-185737500D03*
D13*
X245427500Y-180657500D03*
D12*
X247967500Y-185737500D03*
%TD*%
%TO.C,SW93*%
X90170000Y-223837500D03*
D13*
X91440000Y-221297500D03*
D14*
X95250000Y-223837500D03*
D13*
X97790000Y-218757500D03*
D12*
X100330000Y-223837500D03*
%TD*%
%TO.C,SW8*%
X252095000Y-119062500D03*
D13*
X253365000Y-116522500D03*
D14*
X257175000Y-119062500D03*
D13*
X259715000Y-113982500D03*
D12*
X262255000Y-119062500D03*
%TD*%
%TO.C,SW64*%
X199707500Y-185737500D03*
D13*
X200977500Y-183197500D03*
D14*
X204787500Y-185737500D03*
D13*
X207327500Y-180657500D03*
D12*
X209867500Y-185737500D03*
%TD*%
%TO.C,SW44*%
X213995000Y-166687500D03*
D13*
X215265000Y-164147500D03*
D14*
X219075000Y-166687500D03*
D13*
X221615000Y-161607500D03*
D12*
X224155000Y-166687500D03*
%TD*%
%TO.C,SW16*%
X418782500Y-119062500D03*
D13*
X420052500Y-116522500D03*
D14*
X423862500Y-119062500D03*
D13*
X426402500Y-113982500D03*
D12*
X428942500Y-119062500D03*
%TD*%
%TO.C,SW42*%
X175895000Y-166687500D03*
D13*
X177165000Y-164147500D03*
D14*
X180975000Y-166687500D03*
D13*
X183515000Y-161607500D03*
D12*
X186055000Y-166687500D03*
%TD*%
%TO.C,SW49*%
X309245000Y-166687500D03*
D13*
X310515000Y-164147500D03*
D14*
X314325000Y-166687500D03*
D13*
X316865000Y-161607500D03*
D12*
X319405000Y-166687500D03*
%TD*%
%TO.C,SW38*%
X94932500Y-166687500D03*
D13*
X96202500Y-164147500D03*
D14*
X100012500Y-166687500D03*
D13*
X102552500Y-161607500D03*
D12*
X105092500Y-166687500D03*
%TD*%
%TO.C,SW99*%
X316388750Y-223837500D03*
D13*
X317658750Y-221297500D03*
D14*
X321468750Y-223837500D03*
D13*
X324008750Y-218757500D03*
D12*
X326548750Y-223837500D03*
%TD*%
%TO.C,SW10*%
X299720000Y-119062500D03*
D13*
X300990000Y-116522500D03*
D14*
X304800000Y-119062500D03*
D13*
X307340000Y-113982500D03*
D12*
X309880000Y-119062500D03*
%TD*%
%TO.C,SW98*%
X294957500Y-223837500D03*
D13*
X296227500Y-221297500D03*
D14*
X300037500Y-223837500D03*
D13*
X302577500Y-218757500D03*
D12*
X305117500Y-223837500D03*
%TD*%
%TO.C,SW14*%
X380682500Y-119062500D03*
D13*
X381952500Y-116522500D03*
D14*
X385762500Y-119062500D03*
D13*
X388302500Y-113982500D03*
D12*
X390842500Y-119062500D03*
%TD*%
%TO.C,SW101*%
X356870000Y-223837500D03*
D13*
X358140000Y-221297500D03*
D14*
X361950000Y-223837500D03*
D13*
X364490000Y-218757500D03*
D12*
X367030000Y-223837500D03*
%TD*%
D15*
%TO.C,REF\u002A\u002A*%
X497840000Y-188112500D03*
D14*
X513080000Y-188112500D03*
D15*
X497840000Y-164312500D03*
D14*
X513080000Y-164312500D03*
%TD*%
D12*
%TO.C,SW24*%
X223520000Y-147637500D03*
D13*
X224790000Y-145097500D03*
D14*
X228600000Y-147637500D03*
D13*
X231140000Y-142557500D03*
D12*
X233680000Y-147637500D03*
%TD*%
%TO.C,SW103*%
X399732500Y-223837500D03*
D13*
X401002500Y-221297500D03*
D14*
X404812500Y-223837500D03*
D13*
X407352500Y-218757500D03*
D12*
X409892500Y-223837500D03*
%TD*%
%TO.C,SW54*%
X418782500Y-166687500D03*
D13*
X420052500Y-164147500D03*
D14*
X423862500Y-166687500D03*
D13*
X426402500Y-161607500D03*
D12*
X428942500Y-166687500D03*
%TD*%
%TO.C,SW50*%
X328295000Y-166687500D03*
D13*
X329565000Y-164147500D03*
D14*
X333375000Y-166687500D03*
D13*
X335915000Y-161607500D03*
D12*
X338455000Y-166687500D03*
%TD*%
%TO.C,SW82*%
X228282500Y-204787500D03*
D13*
X229552500Y-202247500D03*
D14*
X233362500Y-204787500D03*
D13*
X235902500Y-199707500D03*
D12*
X238442500Y-204787500D03*
%TD*%
%TO.C,SW89*%
X442595000Y-204787500D03*
D13*
X443865000Y-202247500D03*
D14*
X447675000Y-204787500D03*
D13*
X450215000Y-199707500D03*
D12*
X452755000Y-204787500D03*
%TD*%
%TO.C,SW88*%
X399732500Y-204787500D03*
D13*
X401002500Y-202247500D03*
D14*
X404812500Y-204787500D03*
D13*
X407352500Y-199707500D03*
D12*
X409892500Y-204787500D03*
%TD*%
%TO.C,SW41*%
X156845000Y-166687500D03*
D13*
X158115000Y-164147500D03*
D14*
X161925000Y-166687500D03*
D13*
X164465000Y-161607500D03*
D12*
X167005000Y-166687500D03*
%TD*%
%TO.C,SW2*%
X128270000Y-119062500D03*
D13*
X129540000Y-116522500D03*
D14*
X133350000Y-119062500D03*
D13*
X135890000Y-113982500D03*
D12*
X138430000Y-119062500D03*
%TD*%
%TO.C,SW28*%
X299720000Y-147637500D03*
D13*
X300990000Y-145097500D03*
D14*
X304800000Y-147637500D03*
D13*
X307340000Y-142557500D03*
D12*
X309880000Y-147637500D03*
%TD*%
%TO.C,SW100*%
X337820000Y-223837500D03*
D13*
X339090000Y-221297500D03*
D14*
X342900000Y-223837500D03*
D13*
X345440000Y-218757500D03*
D12*
X347980000Y-223837500D03*
%TD*%
%TO.C,SW20*%
X147320000Y-147637500D03*
D13*
X148590000Y-145097500D03*
D14*
X152400000Y-147637500D03*
D13*
X154940000Y-142557500D03*
D12*
X157480000Y-147637500D03*
%TD*%
%TO.C,SW30*%
X347345000Y-147637500D03*
D13*
X348615000Y-145097500D03*
D14*
X352425000Y-147637500D03*
D13*
X354965000Y-142557500D03*
D12*
X357505000Y-147637500D03*
%TD*%
%TO.C,SW37*%
X499745000Y-147637500D03*
D13*
X501015000Y-145097500D03*
D14*
X504825000Y-147637500D03*
D13*
X507365000Y-142557500D03*
D12*
X509905000Y-147637500D03*
%TD*%
%TO.C,SW71*%
X333057500Y-185737500D03*
D13*
X334327500Y-183197500D03*
D14*
X338137500Y-185737500D03*
D13*
X340677500Y-180657500D03*
D12*
X343217500Y-185737500D03*
%TD*%
%TO.C,SW26*%
X261620000Y-147637500D03*
D13*
X262890000Y-145097500D03*
D14*
X266700000Y-147637500D03*
D13*
X269240000Y-142557500D03*
D12*
X271780000Y-147637500D03*
%TD*%
%TO.C,SW90*%
X461645000Y-204787500D03*
D13*
X462915000Y-202247500D03*
D14*
X466725000Y-204787500D03*
D13*
X469265000Y-199707500D03*
D12*
X471805000Y-204787500D03*
%TD*%
%TO.C,SW91*%
X480695000Y-204787500D03*
D13*
X481965000Y-202247500D03*
D14*
X485775000Y-204787500D03*
D13*
X488315000Y-199707500D03*
D12*
X490855000Y-204787500D03*
%TD*%
%TO.C,SW36*%
X480695000Y-147637500D03*
D13*
X481965000Y-145097500D03*
D14*
X485775000Y-147637500D03*
D13*
X488315000Y-142557500D03*
D12*
X490855000Y-147637500D03*
%TD*%
%TO.C,SW9*%
X271145000Y-119062500D03*
D13*
X272415000Y-116522500D03*
D14*
X276225000Y-119062500D03*
D13*
X278765000Y-113982500D03*
D12*
X281305000Y-119062500D03*
%TD*%
%TO.C,SW84*%
X266382500Y-204787500D03*
D13*
X267652500Y-202247500D03*
D14*
X271462500Y-204787500D03*
D13*
X274002500Y-199707500D03*
D12*
X276542500Y-204787500D03*
%TD*%
D15*
%TO.C,REF\u002A\u002A*%
X333381250Y-197802500D03*
D14*
X333381250Y-213042500D03*
D15*
X357181250Y-197802500D03*
D14*
X357181250Y-213042500D03*
%TD*%
D12*
%TO.C,SW53*%
X399732500Y-166687500D03*
D13*
X401002500Y-164147500D03*
D14*
X404812500Y-166687500D03*
D13*
X407352500Y-161607500D03*
D12*
X409892500Y-166687500D03*
%TD*%
%TO.C,SW5*%
X185420000Y-119062500D03*
D13*
X186690000Y-116522500D03*
D14*
X190500000Y-119062500D03*
D13*
X193040000Y-113982500D03*
D12*
X195580000Y-119062500D03*
%TD*%
%TO.C,SW43*%
X194945000Y-166687500D03*
D13*
X196215000Y-164147500D03*
D14*
X200025000Y-166687500D03*
D13*
X202565000Y-161607500D03*
D12*
X205105000Y-166687500D03*
%TD*%
%TO.C,SW40*%
X137795000Y-166687500D03*
D13*
X139065000Y-164147500D03*
D14*
X142875000Y-166687500D03*
D13*
X145415000Y-161607500D03*
D12*
X147955000Y-166687500D03*
%TD*%
%TO.C,SW96*%
X159226250Y-223837500D03*
D13*
X160496250Y-221297500D03*
D14*
X164306250Y-223837500D03*
D13*
X166846250Y-218757500D03*
D12*
X169386250Y-223837500D03*
%TD*%
%TO.C,SW1*%
X90170000Y-119062500D03*
D13*
X91440000Y-116522500D03*
D14*
X95250000Y-119062500D03*
D13*
X97790000Y-113982500D03*
D12*
X100330000Y-119062500D03*
%TD*%
%TO.C,SW62*%
X161607500Y-185737500D03*
D13*
X162877500Y-183197500D03*
D14*
X166687500Y-185737500D03*
D13*
X169227500Y-180657500D03*
D12*
X171767500Y-185737500D03*
%TD*%
%TO.C,SW72*%
X442595000Y-185737500D03*
D13*
X443865000Y-183197500D03*
D14*
X447675000Y-185737500D03*
D13*
X450215000Y-180657500D03*
D12*
X452755000Y-185737500D03*
%TD*%
%TO.C,SW94*%
X121761250Y-223837500D03*
D13*
X119221250Y-218757500D03*
D14*
X116681250Y-223837500D03*
D13*
X112871250Y-221297500D03*
D12*
X111601250Y-223837500D03*
%TD*%
%TO.C,SW33*%
X418782500Y-147637500D03*
D13*
X420052500Y-145097500D03*
D14*
X423862500Y-147637500D03*
D13*
X426402500Y-142557500D03*
D12*
X428942500Y-147637500D03*
%TD*%
%TO.C,SW56*%
X461645000Y-166687500D03*
D13*
X462915000Y-164147500D03*
D14*
X466725000Y-166687500D03*
D13*
X469265000Y-161607500D03*
D12*
X471805000Y-166687500D03*
%TD*%
%TO.C,SW92*%
X499745000Y-214312500D03*
D13*
X501015000Y-211772500D03*
D14*
X504825000Y-214312500D03*
D13*
X507365000Y-209232500D03*
D12*
X509905000Y-214312500D03*
%TD*%
D15*
%TO.C,REF\u002A\u002A*%
X280987500Y-216852500D03*
D14*
X280987500Y-232092500D03*
%TD*%
D12*
%TO.C,SW70*%
X314007500Y-185737500D03*
D13*
X315277500Y-183197500D03*
D14*
X319087500Y-185737500D03*
D13*
X321627500Y-180657500D03*
D12*
X324167500Y-185737500D03*
%TD*%
%TO.C,SW18*%
X109220000Y-147637500D03*
D13*
X110490000Y-145097500D03*
D14*
X114300000Y-147637500D03*
D13*
X116840000Y-142557500D03*
D12*
X119380000Y-147637500D03*
%TD*%
%TO.C,SW39*%
X118745000Y-166687500D03*
D13*
X120015000Y-164147500D03*
D14*
X123825000Y-166687500D03*
D13*
X126365000Y-161607500D03*
D12*
X128905000Y-166687500D03*
%TD*%
%TO.C,SW73*%
X461645000Y-185737500D03*
D13*
X462915000Y-183197500D03*
D14*
X466725000Y-185737500D03*
D13*
X469265000Y-180657500D03*
D12*
X471805000Y-185737500D03*
%TD*%
D15*
%TO.C,REF\u002A\u002A*%
X185737500Y-216852312D03*
D14*
X185737500Y-232092312D03*
%TD*%
D12*
%TO.C,SW102*%
X380682500Y-223837500D03*
D13*
X381952500Y-221297500D03*
D14*
X385762500Y-223837500D03*
D13*
X388302500Y-218757500D03*
D12*
X390842500Y-223837500D03*
%TD*%
%TO.C,SW79*%
X171132500Y-204787500D03*
D13*
X172402500Y-202247500D03*
D14*
X176212500Y-204787500D03*
D13*
X178752500Y-199707500D03*
D12*
X181292500Y-204787500D03*
%TD*%
%TO.C,SW97*%
X228282500Y-223837500D03*
D13*
X229552500Y-221297500D03*
D14*
X233362500Y-223837500D03*
D13*
X235902500Y-218757500D03*
D12*
X238442500Y-223837500D03*
%TD*%
%TO.C,SW55*%
X442595000Y-166687500D03*
D13*
X443865000Y-164147500D03*
D14*
X447675000Y-166687500D03*
D13*
X450215000Y-161607500D03*
D12*
X452755000Y-166687500D03*
%TD*%
%TO.C,SW57*%
X480695000Y-166687500D03*
D13*
X481965000Y-164147500D03*
D14*
X485775000Y-166687500D03*
D13*
X488315000Y-161607500D03*
D12*
X490855000Y-166687500D03*
%TD*%
%TO.C,SW52*%
X380682500Y-166687500D03*
D13*
X381952500Y-164147500D03*
D14*
X385762500Y-166687500D03*
D13*
X388302500Y-161607500D03*
D12*
X390842500Y-166687500D03*
%TD*%
%TO.C,SW58*%
X499745000Y-176212500D03*
D13*
X501015000Y-173672500D03*
D14*
X504825000Y-176212500D03*
D13*
X507365000Y-171132500D03*
D12*
X509905000Y-176212500D03*
%TD*%
%TO.C,SW59*%
X97313750Y-185737500D03*
D13*
X98583750Y-183197500D03*
D14*
X102393750Y-185737500D03*
D13*
X104933750Y-180657500D03*
D12*
X107473750Y-185737500D03*
%TD*%
%TO.C,SW23*%
X204470000Y-147637500D03*
D13*
X205740000Y-145097500D03*
D14*
X209550000Y-147637500D03*
D13*
X212090000Y-142557500D03*
D12*
X214630000Y-147637500D03*
%TD*%
%TO.C,SW4*%
X166370000Y-119062500D03*
D13*
X167640000Y-116522500D03*
D14*
X171450000Y-119062500D03*
D13*
X173990000Y-113982500D03*
D12*
X176530000Y-119062500D03*
%TD*%
%TO.C,SW48*%
X290195000Y-166687500D03*
D13*
X291465000Y-164147500D03*
D14*
X295275000Y-166687500D03*
D13*
X297815000Y-161607500D03*
D12*
X300355000Y-166687500D03*
%TD*%
%TO.C,SW19*%
X128270000Y-147637500D03*
D13*
X129540000Y-145097500D03*
D14*
X133350000Y-147637500D03*
D13*
X135890000Y-142557500D03*
D12*
X138430000Y-147637500D03*
%TD*%
%TO.C,SW47*%
X271145000Y-166687500D03*
D13*
X272415000Y-164147500D03*
D14*
X276225000Y-166687500D03*
D13*
X278765000Y-161607500D03*
D12*
X281305000Y-166687500D03*
%TD*%
%TO.C,SW81*%
X209232500Y-204787500D03*
D13*
X210502500Y-202247500D03*
D14*
X214312500Y-204787500D03*
D13*
X216852500Y-199707500D03*
D12*
X219392500Y-204787500D03*
%TD*%
%TO.C,SW67*%
X256857500Y-185737500D03*
D13*
X258127500Y-183197500D03*
D14*
X261937500Y-185737500D03*
D13*
X264477500Y-180657500D03*
D12*
X267017500Y-185737500D03*
%TD*%
%TO.C,SW7*%
X233045000Y-119062500D03*
D13*
X234315000Y-116522500D03*
D14*
X238125000Y-119062500D03*
D13*
X240665000Y-113982500D03*
D12*
X243205000Y-119062500D03*
%TD*%
%TO.C,SW21*%
X166370000Y-147637500D03*
D13*
X167640000Y-145097500D03*
D14*
X171450000Y-147637500D03*
D13*
X173990000Y-142557500D03*
D12*
X176530000Y-147637500D03*
%TD*%
%TO.C,SW75*%
X92551250Y-204787500D03*
D13*
X93821250Y-202247500D03*
D14*
X97631250Y-204787500D03*
D13*
X100171250Y-199707500D03*
D12*
X102711250Y-204787500D03*
%TD*%
%TO.C,SW106*%
X480695000Y-223837500D03*
D13*
X481965000Y-221297500D03*
D14*
X485775000Y-223837500D03*
D13*
X488315000Y-218757500D03*
D12*
X490855000Y-223837500D03*
%TD*%
%TO.C,SW83*%
X247332500Y-204787500D03*
D13*
X248602500Y-202247500D03*
D14*
X252412500Y-204787500D03*
D13*
X254952500Y-199707500D03*
D12*
X257492500Y-204787500D03*
%TD*%
D15*
%TO.C,REF\u002A\u002A*%
X352583750Y-188112500D03*
D14*
X367823750Y-188112500D03*
D15*
X352583750Y-164312500D03*
D14*
X367823750Y-164312500D03*
%TD*%
D12*
%TO.C,SW69*%
X294957500Y-185737500D03*
D13*
X296227500Y-183197500D03*
D14*
X300037500Y-185737500D03*
D13*
X302577500Y-180657500D03*
D12*
X305117500Y-185737500D03*
%TD*%
%TO.C,SW85*%
X285432500Y-204787500D03*
D13*
X286702500Y-202247500D03*
D14*
X290512500Y-204787500D03*
D13*
X293052500Y-199707500D03*
D12*
X295592500Y-204787500D03*
%TD*%
%TO.C,SW95*%
X135413750Y-223837500D03*
D13*
X136683750Y-221297500D03*
D14*
X140493750Y-223837500D03*
D13*
X143033750Y-218757500D03*
D12*
X145573750Y-223837500D03*
%TD*%
D15*
%TO.C,REF\u002A\u002A*%
X445300000Y-216852500D03*
D14*
X445300000Y-232092500D03*
D15*
X469100000Y-216852500D03*
D14*
X469100000Y-232092500D03*
%TD*%
D12*
%TO.C,SW3*%
X147320000Y-119062500D03*
D13*
X148590000Y-116522500D03*
D14*
X152400000Y-119062500D03*
D13*
X154940000Y-113982500D03*
D12*
X157480000Y-119062500D03*
%TD*%
%TO.C,SW34*%
X442595000Y-147637500D03*
D13*
X443865000Y-145097500D03*
D14*
X447675000Y-147637500D03*
D13*
X450215000Y-142557500D03*
D12*
X452755000Y-147637500D03*
%TD*%
%TO.C,SW86*%
X304482500Y-204787500D03*
D13*
X305752500Y-202247500D03*
D14*
X309562500Y-204787500D03*
D13*
X312102500Y-199707500D03*
D12*
X314642500Y-204787500D03*
%TD*%
%TO.C,SW27*%
X280670000Y-147637500D03*
D13*
X281940000Y-145097500D03*
D14*
X285750000Y-147637500D03*
D13*
X288290000Y-142557500D03*
D12*
X290830000Y-147637500D03*
%TD*%
%TO.C,SW35*%
X461645000Y-147637500D03*
D13*
X462915000Y-145097500D03*
D14*
X466725000Y-147637500D03*
D13*
X469265000Y-142557500D03*
D12*
X471805000Y-147637500D03*
%TD*%
%TO.C,SW45*%
X233045000Y-166687500D03*
D13*
X234315000Y-164147500D03*
D14*
X238125000Y-166687500D03*
D13*
X240665000Y-161607500D03*
D12*
X243205000Y-166687500D03*
%TD*%
D16*
%TO.C,J1*%
X494225000Y-110475000D03*
D17*
X494225000Y-113015000D03*
X496765000Y-110475000D03*
X496765000Y-113015000D03*
X499305000Y-110475000D03*
X499305000Y-113015000D03*
%TD*%
D18*
%TO.C,J2*%
X443355000Y-111080000D03*
X449135000Y-111080000D03*
D19*
X441925000Y-107430000D03*
D20*
X441925000Y-111610000D03*
D19*
X450565000Y-107430000D03*
D20*
X450565000Y-111610000D03*
%TD*%
M02*
